<svg xmlns="http://www.w3.org/2000/svg" width="28" height="28" fill="none"><path fill="#000" fill-rule="evenodd" d="M10 18h1V5.994h4V5H6v1l4-.006zm10.139-1.688.22 1.512H21V11.47q0-1.732-.782-2.55-.774-.816-2.347-.816-1.537 0-3.111.738l.325.756q1.425-.74 2.75-.739 1.232 0 1.785.695.555.694.554 2.056v.633l-1.82.053q-2.205.045-3.374.817-1.16.774-1.16 2.171 0 1.275.782 1.995.781.72 2.188.721 1.037 0 1.793-.378.765-.386 1.485-1.31h.07Zm-.888.027q-.88.87-2.408.87-1.002 0-1.556-.492-.545-.501-.545-1.398 0-1.125.853-1.652.861-.535 2.874-.633l1.67-.07v.94q0 1.556-.888 2.435M7.424 24.265C8.186 23.045 10.207 21 14 21s5.814 2.046 6.576 3.265l.848-.53C20.519 22.288 18.207 20 14 20s-6.52 2.288-7.424 3.735z" clip-rule="evenodd"/></svg>