<svg xmlns="http://www.w3.org/2000/svg" width="28" height="28" fill="none"><path fill="#000" fill-rule="evenodd" d="M25 6H9.078L6.562 20.68 5.938 16H3v1h2.062l.942 7.066.989.018L9.922 7H25zm-8.392 7.396a4.5 4.5 0 0 0-.795-1.118l-2.868.505v.387q.322-.022.57-.022.773 0 1.17.29.398.29.645.989.054.15.72 2.76-.27.601-1.139 1.956-.87 1.354-1.375 1.761-.204.172-.333.172-.15 0-.43-.247-.385-.345-.73-.344a.79.79 0 0 0-.58.237.8.8 0 0 0-.236.59q0 .398.257.634.355.312.785.312.612 0 1.267-.537 1.01-.838 2.686-3.75.709 3.191.934 3.61.355.677.956.677.408 0 1-.473a6.7 6.7 0 0 0 1.718-2.105l-.376-.194q-.42.795-1.01 1.29-.3.247-.526.247-.14 0-.28-.162-.139-.171-.343-1.02l-.88-3.696q.923-1.6 1.589-2.159.354-.3.612-.3.172 0 .677.171.258.097.483.097.387 0 .688-.269.16-.15.161-.558a.77.77 0 0 0-.28-.602q-.268-.246-.73-.247a1.5 1.5 0 0 0-.57.108q-.407.172-.944.644a5.8 5.8 0 0 0-.913.978l-.946 1.418q-.44-1.644-.634-2.03" clip-rule="evenodd"/></svg>