<svg xmlns="http://www.w3.org/2000/svg" width="28" height="28" fill="none"><path fill="#000" fill-rule="evenodd" d="M6 4H5v1H4a1 1 0 0 0-1 1v11a1 1 0 0 0 1 1h7v-1H4V6h1v1h1V6h2v1h1V6h3v1h1V6h2v1h1V6h1v4h1V6a1 1 0 0 0-1-1h-1V4h-1v1h-2V4h-1v1H9V4H8v1H6zM5 8h1v1H5zm2 0h1v1H7zm3 0H9v1h1zm1 0h1v1h-1zm3 0h-1v1h1zm1 0h1v1h-1zm-9 2H5v1h1zm1 0h1v1H7zm3 0H9v1h1zm1 0h1v1h-1zm3 0h-1v1h1zm1 0h1v1h-1zm-9 2H5v1h1zm1 0h1v1H7zm3 0H9v1h1zm1 0h1v1h-1zm-5 2H5v1h1zm1 0h1v1H7zm17 3.5a5.5 5.5 0 1 1-11 0 5.5 5.5 0 0 1 11 0m1 0a6.5 6.5 0 1 1-13 0 6.5 6.5 0 0 1 13 0m-6 .5h2v-1h-2v-4h-1v5z" clip-rule="evenodd"/></svg>