<svg xmlns="http://www.w3.org/2000/svg" width="28" height="28" fill="none"><path fill="#000" fill-rule="evenodd" d="M2 14h4.014a9 9 0 0 0 0 1H2zm6.853-5.854a9 9 0 0 0-.707.707L5.308 6.015l.707-.707zM14.5 6a9 9 0 0 0-.5.014V2h1v4.014A9 9 0 0 0 14.5 6m6.354 2.853a9 9 0 0 0-.707-.707l2.838-2.838.707.707zM23 14.5a9 9 0 0 0-.015-.5H27v1h-4.015a9 9 0 0 0 .015-.5m-2.854 6.354q.375-.333.708-.707l2.838 2.838-.707.707zM14.5 23q.252 0 .5-.015V27h-1v-4.015q.248.015.5.015m-6.354-2.854q.333.375.707.708l-2.838 2.838-.707-.707zM21 14.5a6.5 6.5 0 1 1-13 0 6.5 6.5 0 0 1 13 0m1 0a7.5 7.5 0 1 1-15 0 7.5 7.5 0 0 1 15 0" clip-rule="evenodd"/></svg>