<svg width="28" height="28" viewBox="0 0 28 28" fill="none" xmlns="http://www.w3.org/2000/svg">
<path d="M26.0625 5.46875C26.0625 4.86469 25.5745 4.375 24.9704 4.375C23.2092 4.375 20.0242 4.375 19.5 4.375V3.28125C19.5 1.47197 18.028 0 16.2188 0H11.8438C10.0345 0 8.5625 1.47197 8.5625 3.28125V4.375C7.93286 4.375 4.82668 4.375 3.09207 4.375C2.48801 4.375 2 4.86469 2 5.46875V5.46875C2 6.07281 2.48969 6.5625 3.09375 6.5625H4.1875C4.1875 6.5625 4.1875 19.5312 4.1875 22.5312C4.1875 25.5312 6.03125 28 9.03125 28H19.0312C22.0312 28 23.875 25.5312 23.875 22.5312V6.5625H24.9688C25.5728 6.5625 26.0625 6.07281 26.0625 5.46875V5.46875ZM10.75 3.28125C10.75 2.67816 11.2407 2.1875 11.8438 2.1875H16.2188C16.8218 2.1875 17.3125 2.67816 17.3125 3.28125V4.375H10.75V3.28125ZM21.6875 22.5312C21.6875 25.0312 20.0312 25.8125 19.0312 25.8125H9.03125C7.53125 25.8125 6.375 24.5312 6.375 22.5312C6.375 20.5312 6.375 6.5625 6.375 6.5625H21.6875V22.5312Z" fill="#1E255E"/>
<path d="M21.6875 22.5312C21.6875 25.0312 20.0312 25.8125 19.0312 25.8125H9.03125C7.53125 25.8125 6.375 24.5312 6.375 22.5312V6.5625H21.6875V22.5312Z" fill="#E3EAFF"/>
<path d="M10.75 3.28125C10.75 2.67816 11.2407 2.1875 11.8438 2.1875H16.2188C16.8218 2.1875 17.3125 2.67816 17.3125 3.28125V4.375H10.75V3.28125Z" fill="#E3EAFF"/>
<path d="M10.0312 10.625C10.0312 10.0209 10.5209 9.53125 11.125 9.53125V9.53125C11.7291 9.53125 12.2188 10.0209 12.2188 10.625V20.4375C12.2188 21.0416 11.7291 21.5312 11.125 21.5312V21.5312C10.5209 21.5312 10.0312 21.0416 10.0312 20.4375V10.625Z" fill="#1E255E"/>
<path d="M16.0312 10.625C16.0312 10.0209 16.5209 9.53125 17.125 9.53125V9.53125C17.7291 9.53125 18.2188 10.0209 18.2188 10.625V20.4375C18.2188 21.0416 17.7291 21.5312 17.125 21.5312V21.5312C16.5209 21.5312 16.0312 21.0416 16.0312 20.4375V10.625Z" fill="#1E255E"/>
</svg>
