<svg width="28" height="28" viewBox="0 0 28 28" fill="none" xmlns="http://www.w3.org/2000/svg">
<g clip-path="url(#clip0_4351_82085)">
<path d="M27.5 9.78467C27.4414 8.56193 26.9084 7.43527 25.999 6.61221L20.5518 1.68224C19.6424 0.859189 18.4656 0.438328 17.2382 0.49713C16.0107 0.555933 14.8795 1.08736 14.053 1.99358L1.67561 15.564C-0.0306479 17.4347 0.10848 20.3388 1.98575 22.0378L7.99185 27.5528C8.17243 27.7162 8.41081 27.8015 8.65454 27.7898L12.0381 27.7898C12.4797 27.7898 12.7238 27.6559 13.0255 27.3542L26.3091 13.0861C27.1357 12.1799 27.5586 11.0075 27.5 9.78467ZM11.9513 25.8825L8.72871 25.8825L3.22347 20.6807C2.09716 19.6613 2.01368 17.9188 3.03739 16.7964L8.46741 10.8295L18 19.5L11.9513 25.8825ZM24.9474 11.8536L19.5 17.8377L9.96748 9.21021L15.4148 3.22607C16.4385 2.10369 18.1878 2.01995 19.3141 3.03927L24.7613 7.9693C25.8876 8.98868 25.9711 10.7312 24.9474 11.8536Z" fill="#1E255E"/>
<path d="M24.9474 11.8536L19.5 17.8377L9.96748 9.21021L15.4148 3.22607C16.4385 2.10369 18.1878 2.01995 19.3141 3.03927L24.7613 7.9693C25.8876 8.98868 25.9711 10.7312 24.9474 11.8536Z" fill="#197CE6"/>
<path d="M11.9513 25.8825L8.72871 25.8825L3.22347 20.6807C2.09716 19.6613 2.01368 17.9188 3.03739 16.7964L8.46741 10.8295L18 19.5L11.9513 25.8825Z" fill="#FF84A2"/>
<path d="M7.82276 27.7369L7.82409 27.7381C8.05222 27.9446 8.35268 28.0529 8.66016 28.0398L12.0381 28.0398C12.2856 28.0398 12.4947 28.002 12.6892 27.9121C12.8811 27.8233 13.0417 27.6915 13.2023 27.531L13.2024 27.5311L13.2085 27.5246L26.4921 13.2565L26.4938 13.2546C27.3651 12.2994 27.8115 11.062 27.7497 9.7727C27.688 8.48343 27.1253 7.29442 26.1667 6.42686L20.7196 1.49689C19.761 0.629355 18.5196 0.185456 17.2262 0.247417C15.9328 0.309377 14.7395 0.869918 13.8683 1.82511L1.4909 15.3955C-0.308409 17.3682 -0.16197 20.4305 1.81719 22.2225C1.81745 22.2227 1.81772 22.2229 1.81799 22.2232L7.82276 27.7369Z" stroke="#1E255E" stroke-width="0.5"/>
</g>
<defs>
<clipPath id="clip0_4351_82085">
<rect width="28" height="28" fill="white"/>
</clipPath>
</defs>
</svg>
