<svg width="28" height="28" viewBox="0 0 28 28" fill="none" xmlns="http://www.w3.org/2000/svg">
<g clip-path="url(#clip0_4327_84963)">
<path d="M8.0512 14.6937L14.6413 20.6152L19.909 14.7394L19.9149 14.7327L25.2454 8.83344C25.6386 8.39922 25.8387 7.83955 25.8096 7.25659C25.7805 6.67357 25.5256 6.13638 25.0918 5.74394L21.7997 2.76551C20.901 1.95242 19.5071 2.0204 18.6923 2.91705L8.0512 14.6937Z" fill="#43DF94"/>
<path fill-rule="evenodd" clip-rule="evenodd" d="M26.5594 4.12186C27.4265 4.90635 27.9362 5.9809 27.9944 7.1476C28.0527 8.3144 27.6525 9.43423 26.8677 10.301L21.5379 16.1993C21.5376 16.1997 21.5372 16.2001 21.5369 16.2004C21.9352 15.7548 21.9021 15.0705 21.4603 14.6655C21.0149 14.2573 20.3231 14.2874 19.9149 14.7327L25.2454 8.83344C25.6386 8.39922 25.8387 7.83955 25.8096 7.25659C25.7805 6.67357 25.5256 6.13638 25.0918 5.74394L21.7997 2.76551C20.901 1.95242 19.5071 2.0204 18.6923 2.91705L8.0512 14.6937L14.6413 20.6152L19.909 14.7394C19.5103 15.1877 19.5471 15.8745 19.9931 16.2775C20.3853 16.6318 20.964 16.6494 21.3737 16.3479C21.4318 16.3052 21.4866 16.256 21.5369 16.2004C21.5338 16.2039 21.5306 16.2074 21.5275 16.2108L15.4727 22.9454C15.3559 23.0728 15.2106 23.1708 15.0487 23.2311L7.4807 26.0537C7.47698 26.0551 7.47332 26.0565 7.4696 26.0578L6.06452 27.6256C5.85704 27.8571 5.56085 27.9894 5.24996 27.9894H1.09373C0.677233 27.9894 0.296829 27.7528 0.112698 27.3792C-0.0714342 27.0056 -0.027411 26.5598 0.226283 26.2294L3.42844 22.0597L5.40226 14.5452C5.44678 14.3758 5.53121 14.2196 5.64857 14.0898L17.0714 1.44826C18.6976 -0.341319 21.4761 -0.477108 23.2674 1.14344L26.5594 4.12186ZM3.31272 25.8018H4.76149L5.47045 25.0106L4.56522 24.1709L3.31272 25.8018ZM7.34792 23.7685L12.669 21.7839L7.08138 16.7631L5.65399 22.1972L7.34792 23.7685Z" fill="#1E255E"/>
<path d="M21.4603 14.6655C21.0149 14.2573 20.3231 14.2874 19.9149 14.7327L19.909 14.7394C19.5103 15.1877 19.5471 15.8745 19.9931 16.2775C20.3853 16.6318 20.964 16.6494 21.3737 16.3479C21.4318 16.3052 21.4866 16.256 21.5369 16.2004C21.9352 15.7548 21.9021 15.0705 21.4603 14.6655Z" fill="#1E255E"/>
<path d="M12.669 21.7839L7.34792 23.7685L5.65399 22.1972L7.08138 16.7631L12.669 21.7839Z" fill="white"/>
<path d="M4.76149 25.8018H3.31272L4.56522 24.1709L5.47045 25.0106L4.76149 25.8018Z" fill="white"/>
</g>
<defs>
<clipPath id="clip0_4327_84963">
<rect width="28" height="28" fill="white"/>
</clipPath>
</defs>
</svg>
