<svg width="28" height="28" viewBox="0 0 28 28" fill="none" xmlns="http://www.w3.org/2000/svg">
<path d="M25.5391 6.28906H14.1685L13.8169 3.46817C13.6633 2.23923 12.6135 1.3125 11.375 1.3125H2.46094C1.10398 1.3125 0 2.41648 0 3.77344V19.4687C0 20.8257 1.10398 21.9297 2.46094 21.9297H9.84189L10.189 24.7506C10.3424 25.977 11.3922 26.9062 12.631 26.9062H25.5391C26.896 26.9062 28 25.8023 28 24.4453V8.64062C28 7.39304 26.896 6.28906 25.5391 6.28906ZM2.46094 20.289C2.00862 20.289 1.64062 19.921 1.64062 19.4687V3.77344C1.64062 3.32112 2.00862 2.95312 2.46094 2.95312H11.375C11.7878 2.95312 12.1378 3.262 12.1889 3.67139C12.3078 4.62492 14.4425 19.3432 14.5604 20.289H2.46094ZM11.7691 24.1582L11.4949 21.9297H13.6957L11.7691 24.1582ZM26.3594 24.4453C26.3594 24.8976 25.9914 25.2656 25.5391 25.2656H12.9805L16.1033 21.6533C16.2632 21.473 16.3348 21.2337 16.3018 20.9958L14.3731 7.92969H25.5391C25.9914 7.92969 26.3594 8.29768 26.3594 8.64062V24.4453Z" fill="#1E255E"/>
<path d="M5.95875 14.6562C5.73125 14.6562 5.55625 14.595 5.43375 14.4725C5.31125 14.35 5.25 14.175 5.25 13.9475V9.19625C5.25 8.96875 5.31125 8.79375 5.43375 8.67125C5.55625 8.54875 5.73125 8.4875 5.95875 8.4875H9.0125C9.1875 8.4875 9.31875 8.53417 9.40625 8.6275C9.49958 8.715 9.54625 8.84333 9.54625 9.0125C9.54625 9.1875 9.49958 9.32167 9.40625 9.415C9.31875 9.5025 9.1875 9.54625 9.0125 9.54625H6.545V10.99H8.81125C8.99208 10.99 9.12625 11.0367 9.21375 11.13C9.30708 11.2175 9.35375 11.3488 9.35375 11.5238C9.35375 11.6988 9.30708 11.8329 9.21375 11.9263C9.12625 12.0138 8.99208 12.0575 8.81125 12.0575H6.545V13.5975H9.0125C9.1875 13.5975 9.31875 13.6442 9.40625 13.7375C9.49958 13.825 9.54625 13.9533 9.54625 14.1225C9.54625 14.2975 9.49958 14.4317 9.40625 14.525C9.31875 14.6125 9.1875 14.6562 9.0125 14.6562H5.95875Z" fill="white"/>
<path fill-rule="evenodd" clip-rule="evenodd" d="M2.46094 20.289C2.00862 20.289 1.64062 19.921 1.64062 19.4687V3.77344C1.64062 3.32112 2.00862 2.95312 2.46094 2.95312H11.375C11.7878 2.95312 12.1378 3.262 12.1889 3.67139C12.3078 4.62492 14.4425 19.3432 14.5604 20.289H2.46094ZM5.43375 14.4725C5.55625 14.595 5.73125 14.6562 5.95875 14.6562H9.0125C9.1875 14.6562 9.31875 14.6125 9.40625 14.525C9.49958 14.4317 9.54625 14.2975 9.54625 14.1225C9.54625 13.9533 9.49958 13.825 9.40625 13.7375C9.31875 13.6442 9.1875 13.5975 9.0125 13.5975H6.545V12.0575H8.81125C8.99208 12.0575 9.12625 12.0138 9.21375 11.9263C9.30708 11.8329 9.35375 11.6988 9.35375 11.5238C9.35375 11.3488 9.30708 11.2175 9.21375 11.13C9.12625 11.0367 8.99208 10.99 8.81125 10.99H6.545V9.54625H9.0125C9.1875 9.54625 9.31875 9.5025 9.40625 9.415C9.49958 9.32167 9.54625 9.1875 9.54625 9.0125C9.54625 8.84333 9.49958 8.715 9.40625 8.6275C9.31875 8.53417 9.1875 8.4875 9.0125 8.4875H5.95875C5.73125 8.4875 5.55625 8.54875 5.43375 8.67125C5.31125 8.79375 5.25 8.96875 5.25 9.19625V13.9475C5.25 14.175 5.31125 14.35 5.43375 14.4725Z" fill="#197CE6"/>
<path d="M11.7691 24.1582L11.4949 21.9297H13.6957L11.7691 24.1582Z" fill="#197CE6"/>
<path fill-rule="evenodd" clip-rule="evenodd" d="M20.0025 19.6569C20.125 19.7385 20.2796 19.7794 20.4662 19.7794C20.6587 19.7794 20.8104 19.7385 20.9212 19.6569C21.0379 19.5694 21.1371 19.4381 21.2187 19.2631L23.4237 14.3631C23.4996 14.1881 23.5229 14.0335 23.4937 13.8994C23.4704 13.7594 23.4062 13.6515 23.3012 13.5756C23.2021 13.494 23.0737 13.4531 22.9162 13.4531C22.7296 13.4531 22.5837 13.4969 22.4787 13.5844C22.3737 13.6719 22.2833 13.8031 22.2075 13.9781L20.4923 17.9518L18.7775 13.9869C18.7075 13.8119 18.62 13.6806 18.515 13.5931C18.41 13.4998 18.2583 13.4531 18.06 13.4531C17.9025 13.4531 17.7683 13.494 17.6575 13.5756C17.5467 13.6515 17.4737 13.7594 17.4387 13.8994C17.4037 14.0335 17.4271 14.1881 17.5087 14.3631L19.7137 19.2631C19.7896 19.4381 19.8858 19.5694 20.0025 19.6569ZM20.7112 18.4581L20.4923 17.9518L20.2737 18.4581H20.7112Z" fill="#1E255E"/>
<path d="M20.2737 18.4581H20.7112L20.4923 17.9518L20.2737 18.4581Z" fill="#1E255E"/>
<path fill-rule="evenodd" clip-rule="evenodd" d="M26.3594 24.4453C26.3594 24.8976 25.9914 25.2656 25.5391 25.2656H12.9805L16.1033 21.6533C16.2632 21.473 16.3348 21.2337 16.3018 20.9958L14.3731 7.92969H25.5391C25.9914 7.92969 26.3594 8.29768 26.3594 8.64062V24.4453ZM20.4662 19.7794C20.2796 19.7794 20.125 19.7385 20.0025 19.6569C19.8858 19.5694 19.7896 19.4381 19.7137 19.2631L17.5087 14.3631C17.4271 14.1881 17.4037 14.0335 17.4387 13.8994C17.4737 13.7594 17.5467 13.6515 17.6575 13.5756C17.7683 13.494 17.9025 13.4531 18.06 13.4531C18.2583 13.4531 18.41 13.4998 18.515 13.5931C18.62 13.6806 18.7075 13.8119 18.7775 13.9869L20.4923 17.9518L22.2075 13.9781C22.2833 13.8031 22.3737 13.6719 22.4787 13.5844C22.5837 13.4969 22.7296 13.4531 22.9162 13.4531C23.0737 13.4531 23.2021 13.494 23.3012 13.5756C23.4062 13.6515 23.4704 13.7594 23.4937 13.8994C23.5229 14.0335 23.4996 14.1881 23.4237 14.3631L21.2187 19.2631C21.1371 19.4381 21.0379 19.5694 20.9212 19.6569C20.8104 19.7385 20.6587 19.7794 20.4662 19.7794Z" fill="white"/>
</svg>
