<svg width="28" height="28" viewBox="0 0 28 28" fill="none" xmlns="http://www.w3.org/2000/svg">
<g clip-path="url(#clip0_4351_82081)">
<g clip-path="url(#clip1_4351_82081)">
<path d="M28 18.3021V1.09375C28 0.489672 27.5103 0 26.9062 0H1.09375C0.489672 0 0 0.489672 0 1.09375V26.9062C0 27.5103 0.489672 28 1.09375 28H18.3021C18.596 28 18.8757 27.8795 19.0757 27.6795L27.6795 19.0756C27.8793 18.876 28 18.5972 28 18.3021ZM2.1875 5.1875C2.1875 3.53065 3.53065 2.1875 5.1875 2.1875H22.8125C24.4694 2.1875 25.8125 3.53065 25.8125 5.1875V17.2084H19.3959C17.9375 17.2084 17.2084 18.0469 17.2084 19.3959V25.8125H5.1875C3.53065 25.8125 2.1875 24.4694 2.1875 22.8125V5.1875ZM24.2657 19.3959L19.3959 24.2657V19.3959C21.2977 19.3959 22.3639 19.3959 24.2657 19.3959ZM5.35938 6.45312C5.35938 5.84905 5.84905 5.35938 6.45312 5.35938H21.7656C22.3697 5.35938 22.8594 5.84905 22.8594 6.45312C22.8594 7.0572 22.3697 7.54688 21.7656 7.54688H6.45312C5.84905 7.54688 5.35938 7.0572 5.35938 6.45312ZM6.45312 12.0677C5.84905 12.0677 5.35938 11.5781 5.35938 10.974C5.35938 10.3699 5.84905 9.88023 6.45312 9.88023H21.7656C22.3697 9.88023 22.8594 10.3699 22.8594 10.974C22.8594 11.5781 22.3697 12.0677 21.7656 12.0677H6.45312Z" fill="#1E255E"/>
<path d="M5.35938 15.5312C5.35938 16.1353 5.84905 16.625 6.45312 16.625H13.0156C13.6197 16.625 14.1094 16.1353 14.1094 15.5312C14.1094 14.9272 13.6197 14.4375 13.0156 14.4375H9.73438H6.45312C5.84905 14.4375 5.35938 14.9272 5.35938 15.5312Z" fill="#1E255E"/>
<path fill-rule="evenodd" clip-rule="evenodd" d="M2.1875 5.1875C2.1875 3.53065 3.53065 2.1875 5.1875 2.1875H22.8125C24.4694 2.1875 25.8125 3.53065 25.8125 5.1875V17.2084H19.3959C17.9375 17.2084 17.2084 18.0469 17.2084 19.3959V25.8125H5.1875C3.53065 25.8125 2.1875 24.4694 2.1875 22.8125V5.1875ZM6.45312 5.35938C5.84905 5.35938 5.35938 5.84905 5.35938 6.45312C5.35938 7.0572 5.84905 7.54688 6.45312 7.54688H21.7656C22.3697 7.54688 22.8594 7.0572 22.8594 6.45312C22.8594 5.84905 22.3697 5.35938 21.7656 5.35938H6.45312ZM5.35938 10.974C5.35938 11.5781 5.84905 12.0677 6.45312 12.0677H21.7656C22.3697 12.0677 22.8594 11.5781 22.8594 10.974C22.8594 10.3699 22.3697 9.88023 21.7656 9.88023H6.45312C5.84905 9.88023 5.35938 10.3699 5.35938 10.974ZM5.35938 15.5312C5.35938 16.1353 5.84905 16.625 6.45312 16.625H13.0156C13.6197 16.625 14.1094 16.1353 14.1094 15.5312C14.1094 14.9272 13.6197 14.4375 13.0156 14.4375H9.73438H6.45312C5.84905 14.4375 5.35938 14.9272 5.35938 15.5312Z" fill="#FFF59D"/>
<path d="M24.2657 19.3959L19.3959 24.2657V19.3959H24.2657Z" fill="#FFF59D"/>
</g>
</g>
<defs>
<clipPath id="clip0_4351_82081">
<rect width="28" height="28" fill="white"/>
</clipPath>
<clipPath id="clip1_4351_82081">
<rect width="28" height="28" rx="5" fill="white"/>
</clipPath>
</defs>
</svg>
