<svg xmlns="http://www.w3.org/2000/svg" width="28" height="28" fill="none"><path fill="#0E8A26" d="m8.685 3.973 3.182 3.182a.5.5 0 0 1 0 .707l-3.182 3.182a.5.5 0 0 1-.707-.707l2.329-2.329V8H7a3 3 0 0 0-3 3v4H3v-4a4 4 0 0 1 4-4h3.299l-2.32-2.32a.5.5 0 0 1 .706-.707"/><path fill="#0E8A26" fill-rule="evenodd" d="M7.524 13.346A.49.49 0 0 1 8 13c.2 0 .4.115.476.345Q9.033 15.179 9.604 17h3.895a.5.5 0 0 1 .294.904 182 182 0 0 1-3.182 2.271q.67 2.086 1.363 4.168a.5.5 0 0 1-.77.56L8 22.605l-3.205 2.296a.5.5 0 0 1-.769-.559q.693-2.083 1.363-4.168a182 182 0 0 1-3.182-2.27.5.5 0 0 1 .294-.905h3.895q.572-1.822 1.128-3.655M7.131 18H4.047c.795.571 1.405 1.002 1.912 1.354l.609.422-.227.705q-.436 1.36-.883 2.717l1.959-1.405.583-.418.583.418 1.96 1.405q-.447-1.357-.884-2.717l-.226-.705.608-.422c.507-.352 1.118-.783 1.912-1.354H8.87l-.22-.7q-.328-1.046-.65-2.093a455 455 0 0 1-.65 2.091z" clip-rule="evenodd"/><path fill="#0E8A26" d="M4.047 18H7.13l.22-.7q.327-1.046.65-2.091.32 1.046.649 2.09l.22.702h3.084c-.795.57-1.405 1.001-1.913 1.353l-.608.422.226.706q.438 1.358.883 2.716l-1.958-1.404-.584-.42-.583.42-1.959 1.404q.447-1.357.883-2.716l.227-.706-.609-.422c-.507-.352-1.117-.783-1.912-1.354m7.754-5.3q1.95-1.35 3.3-2.4l.6-.4-1.4-4.4L18 8.2l.5-.5c.728-.463 1.455-1.013 2.297-1.65.433-.327.895-.677 1.404-1.05l-.3.849c-.469 1.325-.869 2.457-1.2 3.451l-.2.7 3.7 2.7h-4.6l-.2.7c-.26.715-.52 1.515-.808 2.4q-.231.714-.492 1.5a36 36 0 0 1-.5-1.498c-.221-.687-.483-1.502-.8-2.402l-.2-.7z" opacity=".5"/><path fill="#0E8A26" fill-rule="evenodd" d="M22.593 3.554a.645.645 0 0 1 .773 0 .65.65 0 0 1 .238.735l-.02.058a779 779 0 0 0-1.84 5.345l3.987 2.9c.515.375.25 1.19-.387 1.19-1.756-.002-3.42-.005-4.95-.01a987 987 0 0 0-1.577 4.921c-.197.606-1.054.605-1.25 0 0 0-.623-1.878-1.626-4.936-3.219-.015-5.197-.03-5.197-.03-.637 0-.9-.816-.385-1.19 1.73-1.236 3.045-2.179 4.197-3.012-.475-1.456-.99-3.038-1.53-4.708-.197-.606.497-1.11 1.012-.735l3.986 2.902a783 783 0 0 0 4.52-3.394zM15.099 10.3q-1.35 1.05-3.3 2.4h4.8l.2.7c.318.9.58 1.715.8 2.402.195.612.359 1.121.5 1.498q.261-.786.492-1.5c.288-.884.548-1.685.808-2.4l.2-.7h4.6L20.5 10l.2-.7c.331-.994.731-2.126 1.2-3.451L22.2 5c-.509.373-.971.723-1.403 1.05-.843.637-1.57 1.187-2.297 1.65l-.5.5-3.7-2.7 1.4 4.4z" clip-rule="evenodd"/></svg>