<svg xmlns="http://www.w3.org/2000/svg" width="28" height="28" fill="none"><path fill="#0E8A26" d="M14 2c-.4 0-.801.23-.951.691l-.027.089-.691 2.27.015-.05h1.045l.588-1.93L14 3l.021.07L14.61 5h1.045l-.676-2.22-.027-.089A.98.98 0 0 0 14 2m-3.5 8.999q.227-.726.466-1.499c.333-1.078.69-2.24 1.088-3.544L12.041 6h1.045q-.458 1.5-.92 3H11.12l-.31 1h1.047q-.31 1-.621 1.999l-8.234-.001L4.382 13H2.68l1.377 1h1.704q1.962 1.423 3.926 2.844l-.05.156h-1.44l.313.227a3884 3884 0 0 1-6.096-4.42c-.784-.57-.38-1.81.588-1.81zM9.309 18H8.257l.253-.773c-.671 2.056-1.445 4.392-2.466 7.461-.3.921.755 1.688 1.54 1.118 0 0 2.445-1.752 6.416-4.614a2769 2769 0 0 0 6.417 4.614c.784.57 1.838-.197 1.539-1.118-.592-1.78-1.1-3.313-1.555-4.688H19.35q.825 2.5 1.656 4.997L21 24.993A3148 3148 0 0 1 14.057 20h-.114a3095 3095 0 0 1-6.942 4.993l-.006.004Q7.827 22.5 8.651 20H7.6l.33-1h1.05zm9.382 0 .329 1h1.051l-.328-1zm-.327-1h1.439c1.31-.948 2.695-1.952 4.14-3h-1.704q-1.962 1.423-3.926 2.844zm5.254-4h1.702l.266-.193c.784-.57.38-1.81-.588-1.81L17.5 11q-.154-.49-.31-.999h-1.047q.31 1 .621 1.999l8.234-.001zm-7.783-4h1.045c-.285-.924-.588-1.912-.92-3h-1.046q.458 1.5.92 3"/><g fill="#0E8A26" opacity=".5"><path d="m14 3-.021.07L13.39 5h1.218l-.588-1.93zm.914 3h-1.828q-.458 1.5-.92 3h3.669q-.463-1.5-.921-3m1.229 4h-4.286q-.31 1-.621 1.999l-8.234-.001L4.382 13h19.236l1.38-1.002h-8.234zm6.097 4H5.76l3.927 2.844-.05.156h8.727l-.051-.156q1.964-1.421 3.926-2.844m-3.548 4H9.31l-.328 1H19.02zm.658 2h-5.292q3.467 2.501 6.942 4.993l.006.004Q20.173 22.5 19.349 20m-5.406 0H8.651q-.825 2.5-1.656 4.997l.006-.004q3.475-2.491 6.942-4.993"/></g><g fill="#0E8A26" opacity=".03"><path d="m12.04 6 .306-1h3.307l.306 1zm-1.23 4 .31-1h5.76l.309 1zm-6.753 4L2.68 13h22.64q-.698.506-1.378 1zm4.2 4 .253-.773L8.197 17h11.606l-.314.227.253.773zm-.659 2 .33-1h12.143l.33 1z"/></g></svg>