<svg xmlns="http://www.w3.org/2000/svg" width="28" height="28" fill="none"><path fill="#F23D3D" fill-rule="evenodd" d="M13.049 2.691c.15-.46.55-.691.951-.691s.801.23.951.691l.027.089c1.05 3.451 1.82 5.969 2.522 8.218h7.498c.969 0 1.372 1.24.588 1.809-2.161 1.57-4.209 3.054-6.096 4.42.671 2.056 1.445 4.392 2.466 7.461.3.921-.755 1.688-1.54 1.118 0 0-2.445-1.752-6.416-4.614-3.97 2.862-6.417 4.614-6.417 4.614-.784.57-1.838-.197-1.539-1.118 1.02-3.069 1.795-5.405 2.466-7.461a3884 3884 0 0 1-6.096-4.42c-.784-.57-.38-1.81.588-1.81L10.5 11c.702-2.25 1.472-4.768 2.522-8.22zm.951.31-.021.07c-.906 2.978-1.816 5.956-2.743 8.928l-8.234-.001q3.34 2.426 6.685 4.846c-.888 2.72-1.789 5.437-2.692 8.153l.006-.004A3114 3114 0 0 0 14 19.959q3.496 2.521 6.999 5.034l.006.004a1576 1576 0 0 1-2.692-8.153 4177 4177 0 0 0 6.685-4.846h-8.234c-.927-2.971-1.837-5.949-2.743-8.927z" clip-rule="evenodd"/><path fill="#F23D3D" d="M13.979 3.07 14 3l.021.07a1268 1268 0 0 0 2.743 8.928h8.234a4177 4177 0 0 1-6.685 4.846c.888 2.72 1.789 5.437 2.692 8.153l-.006-.005A3200 3200 0 0 1 14 19.96a3114 3114 0 0 1-7 5.034l-.005.004c.903-2.716 1.804-5.433 2.692-8.153q-3.345-2.42-6.685-4.847l8.234.001c.927-2.972 1.837-5.949 2.743-8.927" opacity=".5"/><path fill="#F23D3D" fill-rule="evenodd" d="M21.956 24.688c.3.921-.755 1.688-1.54 1.118 0 0-2.445-1.752-6.416-4.614-3.97 2.862-6.417 4.614-6.417 4.614-.784.57-1.838-.197-1.539-1.118 1.02-3.069 1.795-5.405 2.466-7.461a3884 3884 0 0 1-6.096-4.42c-.784-.57-.38-1.81.588-1.81L10.5 11c.702-2.25 1.472-4.768 2.522-8.22l.027-.088c.15-.46.55-.691.951-.691s.801.23.951.691l.027.089c1.05 3.451 1.82 5.969 2.522 8.218h7.498c.969 0 1.372 1.24.588 1.809-2.161 1.57-4.209 3.054-6.096 4.42.671 2.056 1.445 4.392 2.466 7.461M14 3.001c.913 3.002 1.83 6.002 2.764 8.998l8.234-.001a4223 4223 0 0 1-6.685 4.846c.888 2.72 1.789 5.437 2.692 8.153A2346 2346 0 0 1 14 19.959q-3.495 2.521-7 5.034l-.005.004a1582 1582 0 0 0 2.692-8.153q-3.345-2.42-6.685-4.846h8.234C12.17 9.004 13.087 6.004 14 3.002" clip-rule="evenodd"/><path fill="#F23D3D" d="M20.425 2.2a.5.5 0 0 0-.7-.1L17.82 3.527a.5.5 0 0 0-.1.7l1.427 1.903a.5.5 0 1 0 .8-.6l-.702-.937q.426.109.802.234c.756.252 1.296.53 1.626.79.162.128.248.232.29.301q.03.05.033.067L22 6l-.003.015a.3.3 0 0 1-.032.066c-.043.07-.13.173-.291.301-.33.26-.87.539-1.626.79C18.546 7.674 16.408 8 14 8s-4.546-.327-6.048-.827c-.756-.252-1.296-.53-1.626-.79a1.2 1.2 0 0 1-.29-.302.3.3 0 0 1-.033-.066L6 6l.003-.015a.3.3 0 0 1 .032-.067c.043-.069.13-.173.291-.3.33-.26.87-.539 1.626-.79A14 14 0 0 1 10 4.325V3.312C7.037 3.802 5 4.822 5 6c0 1.657 4.03 3 9 3s9-1.343 9-3c0-.983-1.417-1.855-3.606-2.402l.93-.698a.5.5 0 0 0 .1-.7"/></svg>