<svg xmlns="http://www.w3.org/2000/svg" width="28" height="28" fill="none"><path fill="#000" fill-rule="evenodd" d="m20.652 14.841-.086.584.47.357 1.787 1.358-1.625 2.732-2.175-.842-.497-.192-.437.304c-.64.448-1.144.728-1.521.875l-.542.212-.084.575L15.621 23h-3.242l-.321-2.196-.082-.564-.527-.216a7 7 0 0 1-1.512-.863l-.443-.33-.517.199-2.175.842-1.625-2.732 1.787-1.358.47-.357-.086-.584A7 7 0 0 1 7.311 14c0-.427.016-.697.037-.841l.086-.584-.47-.357-1.787-1.358 1.625-2.732 2.175.842.497.192.437-.304c.64-.448 1.145-.728 1.521-.875l.542-.212.084-.575L12.379 5h3.242l.321 2.196.082.564.527.216a7 7 0 0 1 1.512.863l.444.33.516-.199 2.175-.842 1.625 2.732-1.787 1.358-.47.357.086.584c.02.144.037.414.037.841s-.016.697-.037.841m1.181 5.92 2.067-3.475q.24-.422-.096-.657l-2.163-1.643q.048-.33.048-.986 0-.657-.048-.986l2.163-1.643q.336-.236.096-.657l-2.067-3.475q-.192-.328-.624-.187l-2.547.986a8 8 0 0 0-1.73-.986l-.385-2.63Q16.451 4 16.067 4h-4.133q-.385 0-.481.423l-.384 2.629q-.722.28-1.73.986L6.79 7.052q-.432-.141-.624.187L4.1 10.714q-.24.422.096.657l2.163 1.643q-.048.33-.048.986 0 .657.048.986l-2.163 1.643q-.336.236-.096.657l2.067 3.475q.192.328.624.187l2.547-.986a8 8 0 0 0 1.73.986l.385 2.63q.096.422.48.422h4.134q.384 0 .48-.422l.384-2.63q.722-.28 1.73-.986l2.548.986q.432.141.624-.187m1.2-9.548v-.001.002zm-18.067.001v-.001l.001-.001zm0 5.573.001.001v-.002zm18.067.001v-.002zM14 17a3 3 0 1 0 0-6 3 3 0 0 0 0 6m2-3a2 2 0 1 1-4 0 2 2 0 0 1 4 0" clip-rule="evenodd"/></svg>