<svg xmlns="http://www.w3.org/2000/svg" width="28" height="28" fill="none"><rect width="21" height="18" x="3.5" y="4.5" stroke="#000" rx=".5"/><path fill="#000" fill-rule="evenodd" d="M14.985 18H22a1 1 0 0 0 1-1v-7a1 1 0 0 0-1-1h-7q-.042 0-.082.003l4.532 4.533zM14 10.914V10.5l.5-.5 3.535 3.536L14.5 17.07l-.5-.5v-.414l2.121-2.121H14v-1h2.121zm-.024 2.122a4.5 4.5 0 0 1-.008 1H9v-1zM13 10.67a4.5 4.5 0 1 0 0 5.657V15l-5 .036v-3L13 12z" clip-rule="evenodd" opacity=".4"/><path fill="#000" fill-rule="evenodd" d="M14.985 18H22a1 1 0 0 0 1-1v-7a1 1 0 0 0-1-1h-7q-.042 0-.082.003l.996.997H22v7h-6.015zM15 10.5l-.5-.5-.5.5v.414l1 1zm0 2.536h-1v.464q0-.236-.024-.464H12.97a3.5 3.5 0 0 1-.01 1h1.01q.03-.264.031-.536v.536h1zm0 2.12v1.415l-.5.5-.5-.5v-.414zm-1.257-.155A4.5 4.5 0 0 1 13 16.33a4.5 4.5 0 1 1 .744-4.327l-1.078.005a3.5 3.5 0 1 0-.006 3z" clip-rule="evenodd"/><path fill="#000" fill-rule="evenodd" d="m14.5 17.071-.707-.707 2.328-2.328H9v-1h7.121l-2.328-2.329L14.5 10l2.828 2.828.707.708-.707.707z" clip-rule="evenodd"/></svg>