<svg xmlns="http://www.w3.org/2000/svg" width="147" height="42" viewBox="0 0 147 42" fill="none">
  <path d="M0 10.4962H15.4886V14.2343C15.4886 16.2988 14.0026 17.9724 12.1696 17.9724H0V10.4962Z" fill="white"/>
  <path d="M20.6965 20.6371H4.75772e-05V28.1006H17.4429C19.2398 28.1006 20.6965 26.4298 20.6965 24.3688V20.6371Z" fill="white"/>
  <path d="M0 10.4962H7.30762V28.1015H0V10.4962Z" fill="white"/>
  <path d="M0 0.494995H20.7049V4.19203C20.7049 6.23385 19.2476 7.88907 17.45 7.88907H0V0.494995Z" fill="white"/>
  <path d="M37.2667 27.7346C35.7708 27.7346 34.3996 27.4764 33.153 26.9601C31.9243 26.426 30.8736 25.7138 30.001 24.8236C29.1284 23.9156 28.4517 22.8562 27.9709 21.6455C27.49 20.417 27.2496 19.1084 27.2496 17.7197C27.2496 16.2598 27.5079 14.9244 28.0243 13.7138C28.5407 12.4853 29.2441 11.4259 30.1346 10.5357C31.0428 9.64549 32.1024 8.95113 33.3133 8.45261C34.5421 7.95409 35.8599 7.70484 37.2667 7.70484C38.1749 7.70484 39.0475 7.82056 39.8845 8.05202C40.7393 8.28347 41.5318 8.61285 42.2619 9.04015C43.0098 9.44965 43.6776 9.95707 44.2653 10.5624C44.8708 11.15 45.3872 11.8087 45.8146 12.5387L42.6359 14.5684C42.066 13.5535 41.3448 12.7523 40.4722 12.1648C39.5996 11.5773 38.5311 11.2835 37.2667 11.2835C36.3407 11.2835 35.4859 11.4526 34.7023 11.7909C33.9188 12.1114 33.2421 12.5654 32.6722 13.1529C32.1024 13.7227 31.6572 14.3992 31.3366 15.1826C31.0161 15.966 30.8558 16.8117 30.8558 17.7197C30.8558 18.6099 31.0161 19.4467 31.3366 20.2301C31.6572 20.9957 32.0934 21.6722 32.6455 22.2598C33.2154 22.8295 33.8832 23.2835 34.6489 23.6218C35.4325 23.9423 36.2784 24.1025 37.1866 24.1025C38.54 24.1025 39.6797 23.7642 40.6057 23.0877C41.5496 22.3933 42.2797 21.512 42.7961 20.4438L46.1085 22.1797C45.6811 22.9987 45.1557 23.7553 44.5324 24.4497C43.927 25.1263 43.2413 25.7138 42.4756 26.2123C41.7277 26.693 40.9085 27.0669 40.0181 27.334C39.1455 27.601 38.2284 27.7346 37.2667 27.7346Z" fill="white"/>
  <path d="M55.1416 27.788C54.0197 27.788 52.9601 27.5832 51.9628 27.1737C50.9834 26.7464 50.1286 26.1678 49.3984 25.4378C48.6683 24.6901 48.0895 23.8266 47.6621 22.8473C47.2526 21.8503 47.0478 20.7909 47.0478 19.6693C47.0478 18.5298 47.2526 17.4704 47.6621 16.4912C48.0895 15.4942 48.6683 14.6307 49.3984 13.9007C50.1286 13.1529 50.9834 12.5743 51.9628 12.1648C52.9601 11.7375 54.0197 11.5238 55.1416 11.5238C56.2635 11.5238 57.3142 11.7375 58.2936 12.1648C59.2731 12.5743 60.1278 13.1529 60.858 13.9007C61.6059 14.6307 62.1847 15.4942 62.5943 16.4912C63.0217 17.4704 63.2354 18.5298 63.2354 19.6693C63.2354 20.7909 63.0217 21.8503 62.5943 22.8473C62.1847 23.8266 61.6059 24.6901 60.858 25.4378C60.1278 26.1678 59.2731 26.7464 58.2936 27.1737C57.3142 27.5832 56.2635 27.788 55.1416 27.788ZM55.1416 24.3963C55.7827 24.3963 56.3792 24.2717 56.9313 24.0224C57.4833 23.7731 57.9642 23.4349 58.3737 23.0076C58.7833 22.5803 59.1039 22.0817 59.3354 21.512C59.5669 20.9245 59.6826 20.3102 59.6826 19.6693C59.6826 19.0105 59.5669 18.3963 59.3354 17.8265C59.1039 17.239 58.7833 16.7316 58.3737 16.3043C57.9642 15.877 57.4833 15.5387 56.9313 15.2894C56.3792 15.0402 55.7827 14.9155 55.1416 14.9155C54.5005 14.9155 53.895 15.0402 53.3251 15.2894C52.7731 15.5387 52.2923 15.877 51.8827 16.3043C51.4909 16.7316 51.1793 17.239 50.9478 17.8265C50.7162 18.3963 50.6005 19.0105 50.6005 19.6693C50.6005 20.3102 50.7162 20.9245 50.9478 21.512C51.1793 22.0817 51.4909 22.5803 51.8827 23.0076C52.2923 23.4349 52.7731 23.7731 53.3251 24.0224C53.895 24.2717 54.5005 24.3963 55.1416 24.3963Z" fill="white"/>
  <path d="M64.8243 11.8443H68.4038V13.7672C68.9202 13.0906 69.5702 12.5476 70.3537 12.1381C71.1551 11.7286 72.0633 11.5238 73.0784 11.5238C75.0195 11.5238 76.5332 12.1114 77.6195 13.2865C78.7236 14.4615 79.2756 16.0995 79.2756 18.2004V27.4675H75.6161V18.5743C75.6161 17.3636 75.3222 16.4111 74.7346 15.7167C74.1469 15.0046 73.2654 14.6485 72.09 14.6485C71.0572 14.6485 70.1846 15.0135 69.4722 15.7434C68.7777 16.4734 68.4305 17.5239 68.4305 18.8948V27.4675H64.8243V11.8443Z" fill="white"/>
  <path d="M80.1237 11.8443H82.795V9.46745L86.4278 6.98376V11.8443H89.6066V15.0758H86.4278V20.9245C86.4278 21.601 86.4635 22.153 86.5347 22.5803C86.6059 22.9898 86.7484 23.3102 86.9621 23.5417C87.1936 23.7553 87.5141 23.8978 87.9237 23.969C88.3511 24.0402 88.9121 24.0758 89.6066 24.0758V27.4675H89.099C87.8881 27.4675 86.873 27.3607 86.0539 27.147C85.2525 26.9334 84.6114 26.5773 84.1306 26.0788C83.6498 25.5625 83.3025 24.8948 83.0888 24.0758C82.8929 23.239 82.795 22.1975 82.795 20.9512V15.0758H80.1237V11.8443Z" fill="white"/>
  <path d="M91.3539 11.8443H94.9334V14.1678C95.6635 12.6188 96.9991 11.8443 98.9402 11.8443C99.5101 11.8443 100.018 11.9066 100.463 12.0313C100.926 12.1559 101.335 12.3161 101.692 12.512L100.329 15.9304C100.062 15.7523 99.7594 15.6099 99.421 15.5031C99.1005 15.3785 98.682 15.3161 98.1656 15.3161C97.1149 15.3161 96.3135 15.6188 95.7615 16.2242C95.2272 16.8117 94.9601 17.782 94.9601 19.1351V27.4675H91.3539V11.8443Z" fill="white"/>
  <path d="M109.522 27.788C108.578 27.788 107.643 27.6099 106.717 27.2539C105.809 26.88 104.99 26.3458 104.259 25.6515C103.529 24.9571 102.942 24.1114 102.496 23.1144C102.051 22.0995 101.829 20.9512 101.829 19.6693C101.829 18.3696 102.042 17.2212 102.47 16.2242C102.915 15.2093 103.494 14.3547 104.206 13.6603C104.936 12.966 105.764 12.4408 106.69 12.0847C107.634 11.7108 108.596 11.5238 109.575 11.5238C110.608 11.5238 111.561 11.7197 112.433 12.1114C113.306 12.5031 114.027 13.0372 114.597 13.7138V11.8443H118.203V27.4675H114.597V25.4378C114.027 26.1678 113.297 26.7464 112.407 27.1737C111.516 27.5832 110.555 27.788 109.522 27.788ZM110.109 24.4764C110.786 24.4764 111.409 24.3518 111.979 24.1025C112.549 23.8533 113.039 23.5061 113.448 23.061C113.858 22.6159 114.179 22.0995 114.41 21.512C114.659 20.9245 114.784 20.2924 114.784 19.6159C114.784 18.9571 114.659 18.334 114.41 17.7464C114.179 17.1589 113.858 16.6515 113.448 16.2242C113.039 15.779 112.549 15.4319 111.979 15.1826C111.409 14.9333 110.786 14.8087 110.109 14.8087C109.451 14.8087 108.827 14.9333 108.24 15.1826C107.67 15.4319 107.171 15.7701 106.744 16.1974C106.316 16.6247 105.978 17.1322 105.729 17.7197C105.497 18.3072 105.381 18.9393 105.381 19.6159C105.381 20.2924 105.497 20.9334 105.729 21.5387C105.978 22.1262 106.316 22.6426 106.744 23.0877C107.171 23.515 107.67 23.8533 108.24 24.1025C108.827 24.3518 109.451 24.4764 110.109 24.4764Z" fill="white"/>
  <path d="M127.87 27.788C126.731 27.788 125.662 27.5743 124.665 27.147C123.685 26.7197 122.831 26.1411 122.101 25.4111C121.37 24.6812 120.792 23.8266 120.364 22.8473C119.955 21.8503 119.75 20.7909 119.75 19.6693C119.75 18.5298 119.955 17.4704 120.364 16.4912C120.792 15.4942 121.37 14.6307 122.101 13.9007C122.831 13.1529 123.685 12.5743 124.665 12.1648C125.662 11.7375 126.731 11.5238 127.87 11.5238C128.743 11.5238 129.562 11.6485 130.328 11.8977C131.111 12.1292 131.824 12.4586 132.465 12.8859C133.106 13.3132 133.667 13.8206 134.148 14.4081C134.629 14.9957 135.02 15.6455 135.323 16.3577L132.091 17.7197C131.735 16.8651 131.183 16.1885 130.435 15.69C129.705 15.1737 128.859 14.9155 127.897 14.9155C127.238 14.9155 126.624 15.0402 126.054 15.2894C125.502 15.5387 125.012 15.877 124.585 16.3043C124.175 16.7316 123.855 17.239 123.623 17.8265C123.392 18.3963 123.276 19.0105 123.276 19.6693C123.276 20.3102 123.392 20.9245 123.623 21.512C123.855 22.0817 124.175 22.5803 124.585 23.0076C125.012 23.4349 125.511 23.7731 126.081 24.0224C126.651 24.2717 127.265 24.3963 127.924 24.3963C128.939 24.3963 129.803 24.1292 130.515 23.5951C131.245 23.0432 131.788 22.3399 132.144 21.4853L135.377 22.874C135.074 23.5862 134.682 24.2449 134.201 24.8503C133.72 25.4556 133.159 25.9809 132.518 26.426C131.895 26.8533 131.192 27.1915 130.408 27.4408C129.624 27.6723 128.779 27.788 127.87 27.788Z" fill="white"/>
  <path d="M135.922 11.8443H138.593V9.46745L142.226 6.98376V11.8443H145.405V15.0758H142.226V20.9245C142.226 21.601 142.262 22.153 142.333 22.5803C142.404 22.9898 142.547 23.3102 142.76 23.5417C142.992 23.7553 143.312 23.8978 143.722 23.969C144.149 24.0402 144.71 24.0758 145.405 24.0758V27.4675H144.897C143.686 27.4675 142.671 27.3607 141.852 27.147C141.051 26.9334 140.41 26.5773 139.929 26.0788C139.448 25.5625 139.101 24.8948 138.887 24.0758C138.691 23.239 138.593 22.1975 138.593 20.9512V15.0758H135.922V11.8443Z" fill="white"/>
  <path d="M71.4952 32.0085H72.3991V39.3853H71.4952V33.7333H71.4744L69.0744 37.8996H68.4613L66.0613 33.7333H66.0405V39.3853H65.1366V32.0085H66.0509L68.7627 36.7775H68.7834L71.4952 32.0085Z" fill="white"/>
  <path d="M78.0606 34.3255H78.9022V39.3853H78.0918V38.5853H78.0814C77.6762 39.1256 77.0528 39.4477 76.3151 39.4477C74.9125 39.4477 73.8319 38.4399 73.8319 36.8918C73.8319 35.3956 74.8709 34.2631 76.3047 34.2631C77.0008 34.2631 77.6242 34.5541 78.0502 35.0839H78.0606V34.3255ZM76.3878 38.6788C77.3021 38.6788 78.0918 37.9619 78.0918 36.8918C78.0918 35.8528 77.3749 35.0424 76.3982 35.0424C75.4424 35.0424 74.6839 35.7697 74.6839 36.8918C74.6839 37.91 75.3592 38.6788 76.3878 38.6788Z" fill="white"/>
  <path d="M81.8882 39.4477C80.9843 39.4477 80.5687 38.897 80.5687 37.8788V35.0528H79.9245V34.3255H80.5687V32.6008L81.4103 32.5073V34.3255H83.0934V35.0528H81.4103V37.7541C81.4103 38.3567 81.5557 38.658 82.0337 38.658C82.335 38.658 82.6467 38.5334 82.8856 38.3983L83.1142 39.136C82.8337 39.2918 82.4804 39.4477 81.8882 39.4477Z" fill="white"/>
  <path d="M88.4629 36.7775C88.4629 36.9125 88.4421 37.0892 88.4421 37.1203H84.5459C84.6602 38.0658 85.3251 38.6788 86.2394 38.6788C86.8732 38.6788 87.3512 38.3879 87.6628 37.9931L88.2551 38.5022C87.8187 39.0632 87.133 39.4477 86.2083 39.4477C84.7745 39.4477 83.6939 38.3983 83.6939 36.8606C83.6939 35.3333 84.7433 34.2631 86.1148 34.2631C87.5278 34.2631 88.4629 35.3229 88.4629 36.7775ZM86.1563 35.0424C85.3667 35.0424 84.7329 35.5619 84.5771 36.4242H87.6317C87.4966 35.593 86.9667 35.0424 86.1563 35.0424Z" fill="white"/>
  <path d="M94.3347 39.3853V32.8397H92.1216V32.0085H97.462V32.8397H95.2386V39.3853H94.3347Z" fill="white"/>
  <path d="M102.11 36.7775C102.11 36.9125 102.089 37.0892 102.089 37.1203H98.1927C98.307 38.0658 98.972 38.6788 99.8863 38.6788C100.52 38.6788 100.998 38.3879 101.31 37.9931L101.902 38.5022C101.466 39.0632 100.78 39.4477 99.8551 39.4477C98.4213 39.4477 97.3408 38.3983 97.3408 36.8606C97.3408 35.3333 98.3901 34.2631 99.7616 34.2631C101.175 34.2631 102.11 35.3229 102.11 36.7775ZM99.8031 35.0424C99.0135 35.0424 98.3797 35.5619 98.2239 36.4242H101.279C101.143 35.593 100.614 35.0424 99.8031 35.0424Z" fill="white"/>
  <path d="M105.577 39.4477C104.123 39.4477 103.073 38.3983 103.073 36.8606C103.073 35.3333 104.123 34.2631 105.609 34.2631C106.367 34.2631 107.146 34.5748 107.645 35.1671L107.063 35.6762C106.751 35.2917 106.253 35.0424 105.65 35.0424C104.632 35.0424 103.925 35.7904 103.925 36.8606C103.925 37.9411 104.632 38.6788 105.65 38.6788C106.242 38.6788 106.772 38.4191 107.084 38.0762L107.666 38.5957C107.24 39.0736 106.481 39.4477 105.577 39.4477Z" fill="white"/>
  <path d="M111.536 34.2631C112.637 34.2631 113.375 34.9073 113.375 36.3515V39.3853H112.533V36.5905C112.533 35.4476 112.034 35.0424 111.297 35.0424C110.289 35.0424 109.655 35.7073 109.655 36.8398V39.3853H108.813V31.7384H109.655V35.1567H109.676C110.091 34.5748 110.756 34.2631 111.536 34.2631Z" fill="white"/>
  <path d="M117.572 34.2631C118.663 34.2631 119.39 34.9385 119.39 36.3827V39.3853H118.549V36.6216C118.549 35.4372 118.05 35.0424 117.312 35.0424C116.356 35.0424 115.723 35.7177 115.723 36.8606V39.3853H114.881V34.3255H115.723V35.2086H115.733C116.159 34.606 116.824 34.2631 117.572 34.2631Z" fill="white"/>
  <path d="M123.214 39.4477C121.635 39.4477 120.596 38.3152 120.596 36.8606C120.596 35.406 121.635 34.2631 123.214 34.2631C124.7 34.2631 125.812 35.3229 125.812 36.8606C125.812 38.3983 124.7 39.4477 123.214 39.4477ZM123.214 38.6788C124.191 38.6788 124.96 37.9308 124.96 36.8606C124.96 35.7801 124.191 35.0424 123.214 35.0424C122.155 35.0424 121.448 35.8528 121.448 36.8606C121.448 37.8684 122.165 38.6788 123.214 38.6788Z" fill="white"/>
  <path d="M127.18 39.3853V31.7384H128.022V39.3853H127.18Z" fill="white"/>
  <path d="M132.011 39.4477C130.432 39.4477 129.393 38.3152 129.393 36.8606C129.393 35.406 130.432 34.2631 132.011 34.2631C133.497 34.2631 134.609 35.3229 134.609 36.8606C134.609 38.3983 133.497 39.4477 132.011 39.4477ZM132.011 38.6788C132.988 38.6788 133.757 37.9308 133.757 36.8606C133.757 35.7801 132.988 35.0424 132.011 35.0424C130.952 35.0424 130.245 35.8528 130.245 36.8606C130.245 37.8684 130.962 38.6788 132.011 38.6788Z" fill="white"/>
  <path d="M139.748 34.3255H140.58V39.0009C140.58 40.4659 139.863 41.5049 138.096 41.5049C137.338 41.5049 136.642 41.3178 136.039 40.9542L136.237 40.175C136.829 40.5074 137.338 40.7048 138.055 40.7048C139.198 40.7048 139.759 40.0399 139.759 39.2191V38.5126H139.738C139.343 39.0009 138.751 39.2918 138.024 39.2918C136.673 39.2918 135.572 38.2944 135.572 36.7879C135.572 35.3541 136.611 34.2631 137.982 34.2631C138.657 34.2631 139.291 34.5333 139.728 35.032H139.748V34.3255ZM138.086 38.5022C139.104 38.5022 139.78 37.7541 139.78 36.7463C139.78 35.7281 139.042 35.0528 138.086 35.0528C137.12 35.0528 136.434 35.7801 136.434 36.7567C136.434 37.8372 137.182 38.5022 138.086 38.5022Z" fill="white"/>
  <path d="M145.656 34.3255H146.55L143.693 41.4425H142.799L143.703 39.1775L141.563 34.3255H142.467L144.108 38.1801H144.129L145.656 34.3255Z" fill="white"/>
</svg>