<svg xmlns="http://www.w3.org/2000/svg" width="28" height="28" fill="none"><path fill="#000" fill-rule="evenodd" d="M12 24H6V4h8v5a1 1 0 0 0 1 1h5v4h1V9.414a1 1 0 0 0-.293-.707l-5.414-5.414A1 1 0 0 0 14.586 3H6a1 1 0 0 0-1 1v20a1 1 0 0 0 1 1h6zm3-19.586L19.586 9H15z" clip-rule="evenodd"/><path fill="#000" fill-rule="evenodd" d="M20.44 15.854a1.5 1.5 0 0 1 2.12 0l.586.585a1.5 1.5 0 0 1 0 2.122L15.707 26H13v-2.707zm1.414.707a.5.5 0 0 0-.708 0l-.939.939 1.293 1.293.94-.94a.5.5 0 0 0 0-.707zM20.793 19.5 19.5 18.207l-5.5 5.5V25h1.293z" clip-rule="evenodd"/><path fill="#000" d="M8 6h4v1H8zm0 3h4v1H8zm0 9h4v1H8zm0-6h10v1H8zm0 3h10v1H8z"/></svg>