<svg xmlns="http://www.w3.org/2000/svg" width="28" height="28" fill="none"><path fill="#000" d="M24 12.818q0 2.765-1.145 4.438-1.133 1.674-3.084 1.674-1.12 0-1.825-.655-.693-.654-.806-1.783h-.05q-.54 1.214-1.56 1.832-1.02.606-2.38.606-1.862 0-2.882-1.164-1.02-1.176-1.02-3.287 0-2.45 1.511-4.002 1.523-1.565 3.965-1.565 1.737 0 3.6.497l-.277 5.628v.364q0 1.261.44 1.904.44.63 1.46.63 1.297 0 2.115-1.406.83-1.419.83-3.687 0-2.353-.994-4.124-.995-1.77-2.844-2.717-1.839-.958-4.204-.958-2.895 0-5.11 1.213a8.3 8.3 0 0 0-3.4 3.408q-1.183 2.208-1.183 5.07 0 3.905 2.102 6.04 2.102 2.122 5.966 2.122 1.17 0 2.366-.218 1.21-.219 2.92-.849v1.2q-2.555.971-5.21.971-4.393 0-6.848-2.426Q4 19.137 4 14.806q0-3.105 1.36-5.579a9.6 9.6 0 0 1 3.863-3.856Q11.728 4 14.875 4q2.706 0 4.783 1.08 2.089 1.08 3.21 3.092Q24 10.173 24 12.818m-13.455 1.637q0 1.734.692 2.608.693.873 2.19.873 3.21 0 3.436-4.197l.202-3.53q-.994-.326-2.43-.327-1.875 0-2.982 1.25-1.108 1.236-1.108 3.323"/></svg>