<svg xmlns="http://www.w3.org/2000/svg" width="28" height="28" fill="none"><path fill="#000" fill-rule="evenodd" d="M16.227 4.645Q15.531 4 14.096 4a5.4 5.4 0 0 0-1.48.198q-.702.197-1.245.476l.374.923q.513-.249 1.084-.432a3.9 3.9 0 0 1 1.201-.184q.813 0 1.26.418.447.417.447 1.457v.491l-1.385.059q-1.948.058-2.9.703T10.5 9.955q0 .798.322 1.318.33.52.894.776.57.257 1.303.257.696 0 1.172-.147.483-.153.85-.447c.088-.072.207-.146.335-.225.227-.142.48-.3.624-.487l.037 1.05h.886V6.702q0-1.415-.696-2.058M14.5 8.255l1.223-.05v.739q0 1.186-.681 1.78-.681.593-1.75.593-.69 0-1.107-.33t-.417-1.018q0-.79.615-1.223.615-.432 2.117-.49M18 8v1.017L22 9V8zM8 14.5V12H7v11.031h1l.128-.948h.095q.33.512.938.871.615.352 1.567.352 1.018 0 1.765-.476t1.157-1.407.41-2.285q0-2.058-.9-3.098-.894-1.047-2.403-1.047-.966 0-1.589.373a2.7 2.7 0 0 0-.952.916L8 16.355c.004-.076.002-.192 0-.324-.004-.167-.008-.36 0-.531.013-.206.009-.437.004-.666zm1.175 1.855q.513-.344 1.385-.344 1.134 0 1.684.783.557.784.557 2.337 0 1.523-.564 2.344-.557.82-1.677.82-1.334 0-1.839-.798-.505-.806-.505-2.322v-.066q0-1.047.22-1.729.226-.688.74-1.025m8.313 6.504q.829.447 1.912.447.681 0 1.172-.11.498-.11.9-.315v-1.084q-.417.184-.93.322a4.6 4.6 0 0 1-1.15.132q-.798 0-1.332-.359-.528-.366-.799-1.055-.264-.689-.263-1.662 0-1.018.27-1.714.279-.696.828-1.055.556-.359 1.392-.359.417 0 .893.118.484.117.85.263l.366-1.018a3.7 3.7 0 0 0-.923-.3 5.3 5.3 0 0 0-1.157-.125q-1.091 0-1.948.447-.856.447-1.348 1.377-.483.923-.483 2.38 0 1.392.461 2.308t1.29 1.362" clip-rule="evenodd"/></svg>