<svg xmlns="http://www.w3.org/2000/svg" width="28" height="28" fill="none"><path fill="#000" fill-rule="evenodd" d="M25 3H3v1h22zM3 5h22v1H3zm18 2h4v1h-4zm4 2h-4v1h4zm-4 2h4v1h-4zm4 2h-4v1h4zm-4 2h4v1h-4zm4 2h-4v1h4zm-4 2h4v1h-4zm4 2H3v1h22zm0 2H3v1h22zM7 19H3v1h4zm-4-2h4v1H3zm4-2H3v1h4zm-4-2h4v1H3zm4-2H3v1h4zM3 9h4v1H3zm4-2H3v1h4zm12.984 1.38s-.29 3.222-1.063 4.142c-.477.569-1.282.513-1.822.476q-.174-.014-.303-.016c.483.115 1.932.806 1.932 2.761 0 2.186-.87 4.257-1.74 4.257-.869 0-2.415-2.761-2.415-5.407 0-.219-.039-.345-.067-.438q-.022-.066-.029-.118c.009.198.06 1.821-.484 1.821-.553 0-.49-1.68-.483-1.83a.6.6 0 0 1-.072.184c-.055.111-.12.246-.12.38C13.317 17.24 11.77 20 10.9 20c-.773 0-1.739-2.07-1.739-4.372 0-1.769 1.186-2.408 1.699-2.685q.081-.043.137-.076c-.29.115-1.353.345-1.932-.345-.677-.92-1.063-4.141-1.063-4.141l-.001-.06c-.008-.31-.029-1.206.87-1.206 2.996 0 4.735 4.487 4.735 5.062 0 0 0-.92.483-.92s.483.92.483.92c0-.575 1.74-5.177 4.638-5.177.847 0 .803.796.78 1.225q-.007.09-.007.156" clip-rule="evenodd"/></svg>