<svg xmlns="http://www.w3.org/2000/svg" width="28" height="28" fill="none"><path fill="#000" fill-rule="evenodd" d="M15 6h-1V4H7v6H6V4a1 1 0 0 1 1-1h7.586a1 1 0 0 1 .707.293L18 6h-1.414L15 4.414zM6 17v3a1 1 0 0 0 1 1h3v-1H7v-3zM3 7h2v1H4v5H3zm0 6v1h3.836l-1.293 1.293.707.707 2.5-2.5-2.5-2.5-.707.707L6.836 13zm9-4.969V23.97h12v-9.75h-5c-.552 0-1-.462-1-1.031V8.031zm7 .427 4.586 4.73H19zM12 7c-.552 0-1 .462-1 1.031V23.97c0 .57.448 1.031 1 1.031h12c.552 0 1-.462 1-1.031V13.615c0-.274-.105-.536-.293-.73l-5.414-5.583A.99.99 0 0 0 18.586 7zm10 10v-1h-8v1zm-1 4v-1h-6v1zm-6-2h-1v3h8v-3z" clip-rule="evenodd"/></svg>