<svg xmlns="http://www.w3.org/2000/svg" width="20" height="20" fill="none"><path fill="#000" fill-rule="evenodd" d="M4 5h13v11H4zM3 17V4h15v13zm7.146-11.354-1.5 1.5.708.708.646-.647V9h1V7.207l.646.647.707-.708-1.5-1.5-.353-.353zM11 13.793V12h-1v1.793l-.646-.647-.708.708 1.5 1.5.354.353.354-.353 1.5-1.5-.708-.708zm-4.854-1.44-1.5-1.5-.353-.353.353-.354 1.5-1.5.708.708-.647.646H9v1H6.207l.647.646zm10.208-2.207-1.5-1.5-.708.708.647.646H12v1h2.793l-.647.646.708.707 1.5-1.5.353-.353z" clip-rule="evenodd"/></svg>