<svg xmlns="http://www.w3.org/2000/svg" width="40" height="40" fill="none"><path fill="#000" fill-rule="evenodd" d="M4 4h32v1H4zm32 3H4v1h32zM4 10h32v1H4zm32 3H4v1h32zM4 16h32v1H4zm32 3H4v1h32zM4 22h32v1H4zm32 3H4v1h32zM4 28h32v1H4zm32 3H4v1h32zm0 3H4v1h32z" clip-rule="evenodd" opacity=".4"/><path fill="#000" fill-rule="evenodd" d="M11.102 11c-.114.352-.104.728-.1.931l.002.087s.048.392.141.982h5.993c-.6-.768-1.313-1.481-2.129-2zm13.88 0c-.741.539-1.393 1.247-1.946 2h5.825c.08-.59.115-.982.115-.982q.001-.094.01-.228c.012-.221.029-.51-.011-.79zm3.728 3h-6.341a15.5 15.5 0 0 0-1.021 2h6.937c.179-.66.319-1.367.425-2m-.745 3H20.98c-.08.264-.12.461-.12.566 0 0 0-.269-.065-.566h-1.32c-.065.297-.065.566-.065.566 0-.106-.041-.303-.123-.566H12.07c.16.441.336.816.528 1.07.87 1.01 2.464.673 2.9.505q-.085.048-.207.111c-.153.081-.346.183-.558.314H24.87a3.2 3.2 0 0 0-.676-.257c.128 0 .283.01.456.023.809.054 2.017.136 2.733-.695.22-.255.413-.63.583-1.071m-1.822 3H13.586c-.388.49-.705 1.137-.808 2h6.157q.04-.45.04-.903c0-.197.1-.394.182-.557.055-.107.101-.2.108-.268-.006.127-.04 1.01.094 1.728h1.262c.131-.696.102-1.549.095-1.715a1 1 0 0 0 .043.173c.043.135.1.32.1.64q.001.45.041.902h6.134a4 4 0 0 0-.89-2m.947 3h-6.057c.122.692.303 1.367.522 2h5.332c.118-.637.19-1.313.203-2m-.436 3h-4.706c.352.795.755 1.484 1.159 2h2.697c.333-.518.628-1.209.85-2m-9.925 2c.403-.516.807-1.205 1.158-2H13.23c.236.797.54 1.485.87 2zm-3.747-3h5.298c.22-.633.4-1.308.522-2H12.75c.023.694.105 1.369.232 2m-1.222-9h7.149a14.6 14.6 0 0 0-1.066-2h-6.527c.117.633.266 1.34.444 2" clip-rule="evenodd"/></svg>