<svg xmlns="http://www.w3.org/2000/svg" width="20" height="20" fill="none"><path fill="#000" fill-rule="evenodd" d="M13.012 7H16v-.701h-1.863V6.26l.55-.477q.55-.465.766-.715a1.9 1.9 0 0 0 .322-.488q.105-.24.105-.513a.95.95 0 0 0-.17-.556 1.1 1.1 0 0 0-.476-.377A1.75 1.75 0 0 0 14.526 3q-.303 0-.55.057a2 2 0 0 0-.453.156 3.2 3.2 0 0 0-.523.35l.491.537q.255-.194.489-.299a1.2 1.2 0 0 1 .482-.105q.237 0 .377.116.144.116.143.353a.8.8 0 0 1-.064.308 1.4 1.4 0 0 1-.21.323 10 10 0 0 1-.623.623L13.012 6.42zm-2.498 4.832L11.778 15H13L9.007 5h-.993L4 15h1.194l1.25-3.168zM8.965 7.704l1.18 3.086H6.862l1.195-3.086q.284-.783.437-1.437a16 16 0 0 0 .472 1.437Z" clip-rule="evenodd"/></svg>