<svg xmlns="http://www.w3.org/2000/svg" width="20" height="20" fill="none"><path fill="#000" fill-rule="evenodd" d="M5 7V6H4v1zm0 1v1H4V8zm2 2v1H6v-1zm-2 7v-1H4v1zm2 0v-1H6v1zm2-1v1H8v-1zm2 1v-1h-1v1zm2-1v1h-1v-1zm2 1v-1h-1v1zm-6-6v-1H8v1zm4-1v1h-1v-1zm2 1v-1h-1v1zm2 5v1h-1v-1zM5 15v-1H4v1zm0-3v1H4v-1zm0-1v-1H4v1zm12 3v1h-1v-1zm0-1v-1h-1v1zm0-3v1h-1v-1zm0-1V8h-1v1zm0-3v1h-1V6zm-6 9v-1h-1v1zm0-3v1h-1v-1zm0-1v-1h-1v1zm0-3v1h-1V8zm0-1V6h-1v1z" clip-rule="evenodd" opacity=".4"/><path fill="#000" d="M17 4v1H4V4z"/></svg>