<svg xmlns="http://www.w3.org/2000/svg" width="20" height="20" fill="none"><path fill="#000" fill-rule="evenodd" d="M8 3h3V2H4v1h3v9h1zm5.879 8.836H15V7.283q0-2.61-2.468-2.611-1.346 0-2.379.656v1.149q1.019-.862 2.284-.862 1.442 0 1.442 1.784l-2.099.294q-2.31.322-2.31 2.284 0 .915.588 1.47.594.553 1.64.553 1.422 0 2.154-1.258h.027zM12.19 8.527l1.689-.232v.697q0 .896-.547 1.484-.54.58-1.374.58-.608 0-.978-.32a1.08 1.08 0 0 1-.362-.841q0-.705.397-.978.396-.28 1.175-.39m-6.747 9.204C5.99 16.684 7.396 15 10 15s4.011 1.684 4.556 2.731l.887-.462C14.798 16.029 13.11 14 10 14s-4.798 2.03-5.443 3.269z" clip-rule="evenodd"/></svg>