<svg xmlns="http://www.w3.org/2000/svg" width="20" height="20" fill="none"><path fill="#000" fill-rule="evenodd" d="M5 5H4V4h1zm0 2H4V6h1zM4 9h1V8H4zm1 2H4v-1h1zm-1 2h1v-1H4zm1 2H4v-1h1zm5-8h1V6h-1zm1 2h-1V8h1zm-1 4h1v-1h-1zm1 2h-1v-1h1zm-7 2h1v-1H4zM17 5h-1V4h1zm-1 2h1V6h-1zm1 2h-1V8h1zm-1 2h1v-1h-1zm1 2h-1v-1h1zm-1 2h1v-1h-1zm1 2h-1v-1h1zM6 5h1V4H6zm3 0H8V4h1zm1 0h1V4h-1zm3 0h-1V4h1zm1 0h1V4h-1zM7 17H6v-1h1zm1 0h1v-1H8zm3 0h-1v-1h1zm1 0h1v-1h-1zm3 0h-1v-1h1zm-9-6h1v-1H6zm3 0H8v-1h1zm1 0h1v-1h-1zm3 0h-1v-1h1zm1 0h1v-1h-1z" clip-rule="evenodd" opacity=".4"/></svg>