<svg xmlns="http://www.w3.org/2000/svg" width="20" height="20" fill="none"><path fill="#000" d="M13.028 8.01h-1.1l-.438-1.137H9.487L9.073 8.01H8L9.952 3h1.07zm-1.863-1.982-.69-1.859-.677 1.86h1.367ZM13 11h2.003q.594 0 .885.051.294.048.523.205.233.157.386.42.154.261.154.585 0 .352-.191.646a1.17 1.17 0 0 1-.513.441q.458.133.704.455.246.321.246.755 0 .342-.16.667-.158.321-.434.516a1.43 1.43 0 0 1-.677.236q-.254.027-1.22.034H13zm1.012.834v1.159h.663q.591 0 .735-.017a.67.67 0 0 0 .406-.178q.15-.15.15-.393a.54.54 0 0 0-.13-.376q-.125-.147-.379-.178-.15-.017-.864-.017zm0 1.993v1.34h.936q.547 0 .694-.031a.62.62 0 0 0 .366-.198.62.62 0 0 0 .143-.428.65.65 0 0 0-.109-.383.62.62 0 0 0-.318-.229q-.205-.07-.895-.071zM3 9.998a4 4 0 0 1 3-3.874v1.045a3.001 3.001 0 0 0 1 5.829h2.043l-1.147-1.146.708-.707 2.353 2.353-2.353 2.354-.708-.707 1.147-1.147H7a4 4 0 0 1-4-4"/></svg>