<svg xmlns="http://www.w3.org/2000/svg" width="20" height="20" fill="none"><path fill="#000" fill-rule="evenodd" d="m6.854 5.147 2 2-.708.707L7 6.707V16H6V6.707L4.854 7.854l-.708-.707 2-2 .354-.354zM10 7.997V10h5.01V8.294q-.006-.966-.033-1.22a1.43 1.43 0 0 0-.236-.677 1.34 1.34 0 0 0-.516-.434 1.5 1.5 0 0 0-.667-.16q-.434 0-.755.246t-.455.704a1.17 1.17 0 0 0-.44-.513 1.16 1.16 0 0 0-.647-.191 1.1 1.1 0 0 0-.584.154 1.3 1.3 0 0 0-.42.386 1.3 1.3 0 0 0-.206.523 5.6 5.6 0 0 0-.05.885Zm1.993.991h-1.159v-.58q0-.715.017-.866a.57.57 0 0 1 .178-.379.54.54 0 0 1 .376-.13q.243 0 .393.15a.67.67 0 0 1 .178.407q.017.144.017.735zm2.174 0h-1.34v-.817q0-.69.072-.895a.62.62 0 0 1 .229-.318.65.65 0 0 1 .382-.11.62.62 0 0 1 .428.144q.156.141.198.366.03.147.03.694v.936Zm.844 3.085v-1.1L10 12.977v1.07L15.01 16v-1.073l-1.138-.414V12.51zm-3.842 1.452 1.86-.69v1.367z" clip-rule="evenodd"/></svg>