<svg xmlns="http://www.w3.org/2000/svg" width="20" height="20" fill="none"><path fill="#000" fill-rule="evenodd" d="M10.07 13a3 3 0 1 0 0-6 3 3 0 0 0 0 6m2-3a2 2 0 1 1-4 0 2 2 0 0 1 4 0" clip-rule="evenodd"/><path fill="#000" fill-rule="evenodd" d="m15.483 14.732 1.447-2.431q.168-.297-.067-.46l-1.514-1.15a5 5 0 0 0 .034-.691q0-.46-.034-.69l1.514-1.15q.236-.165.067-.46l-1.447-2.432q-.134-.231-.437-.132l-1.783.69a5.5 5.5 0 0 0-1.21-.69l-.27-1.84Q11.715 3 11.447 3H8.553q-.268 0-.336.296l-.27 1.84q-.504.198-1.21.69l-1.783-.69q-.303-.099-.437.132L3.07 7.7q-.168.295.067.46l1.514 1.15a5 5 0 0 0-.033.69q0 .46.033.69l-1.514 1.15q-.236.165-.067.46l1.447 2.432q.135.231.437.132l1.783-.69q.572.428 1.21.69l.27 1.84q.068.296.336.296h2.893q.27 0 .337-.296l.27-1.84q.504-.198 1.21-.69l1.783.69q.303.099.437-.132m-1.124-4.187-.085.584 1.508 1.146-.871 1.464-1.784-.69-.436.305c-.44.306-.77.488-1.003.578l-.541.212L10.875 16h-1.75l-.27-1.844-.527-.217a4.5 4.5 0 0 1-.993-.566l-.443-.332-1.803.698-.87-1.464 1.507-1.146-.085-.584A4 4 0 0 1 5.618 10c0-.296.011-.466.023-.545l.085-.584-1.508-1.146.871-1.464 1.783.69.437-.305c.44-.306.77-.487 1.003-.578l.541-.212L9.125 4h1.75l.27 1.844.527.217q.518.213.993.566l.443.332 1.803-.698.87 1.464-1.507 1.146.085.584c.012.079.024.25.024.545s-.012.466-.024.545" clip-rule="evenodd"/></svg>