<svg xmlns="http://www.w3.org/2000/svg" width="20" height="20" fill="none"><path fill="#000" fill-rule="evenodd" d="M7.927 9.01h1.1L7.022 4h-1.07L4 9.01h1.073l.414-1.137H7.49zM6.475 5.17l.69 1.86H5.798zM11.995 4H9.99v5.01h1.706q.968-.006 1.22-.033.404-.045.677-.236.277-.195.434-.516a1.5 1.5 0 0 0 .16-.667q0-.435-.245-.755-.248-.321-.705-.455.325-.147.513-.44a1.16 1.16 0 0 0 .192-.647 1.13 1.13 0 0 0-.154-.584 1.3 1.3 0 0 0-.387-.42 1.3 1.3 0 0 0-.522-.206A5.6 5.6 0 0 0 11.994 4Zm-.992 1.993V4.834h.581q.714 0 .865.017.252.03.38.178a.54.54 0 0 1 .13.376.53.53 0 0 1-.151.393.67.67 0 0 1-.407.178 9 9 0 0 1-.735.017zm0 2.173v-1.34h.817q.69 0 .895.072a.62.62 0 0 1 .318.23.65.65 0 0 1 .11.382.62.62 0 0 1-.144.428.62.62 0 0 1-.366.198q-.147.03-.693.03zm4.151 4.698-2 2-.707-.707L13.604 13H4v-1h9.583l-1.136-1.136.707-.707L14.997 12H15v.003l.154.154.354.354z" clip-rule="evenodd"/></svg>