<svg xmlns="http://www.w3.org/2000/svg" width="20" height="20" fill="none"><path fill="#000" fill-rule="evenodd" d="M5 4v1H4V4zm2 0v1H6V4zm2 1V4H8v1zm4-1v1h-1V4zm2 1V4h-1v1zm2-1v1h-1V4zM5 17v-1H4v1zm2-1v1H6v-1zm2 1v-1H8v1zm2-13v1h-1V4zm0 13v-1h-1v1zm2-1v1h-1v-1zm2 1v-1h-1v1zm2-1v1h-1v-1zM5 7V6H4v1zm0 1v1H4V8zm0 5v-1H4v1zm0 1v1H4v-1zm12-7V6h-1v1zm0 1v1h-1V8zM5 11v-1H4v1zm12-1v1h-1v-1zm0 3v-1h-1v1zm0 1v1h-1v-1z" clip-rule="evenodd" opacity=".4"/><path fill="#000" fill-rule="evenodd" d="m4.146 4.854 12 12 .707-.707-12-12z" clip-rule="evenodd"/></svg>