<svg xmlns="http://www.w3.org/2000/svg" width="20" height="20" fill="none"><path fill="#000" d="M9.51 12H5.44l-1.25 3H3L7 5h1l4 10h-1.22zm-3.65-1h3.29L7.5 6.5zM17 15l-1-.006v-.495c-.5.5-1 .5-1.388.5q-.757 0-1.187-.453Q13 14.093 13 13.343c0-1.242.5-1.844 1.671-2.103L16 11c0-.974-.438-1.228-.854-1.228-.61 0-1.652.228-1.652.228v-.463A2.87 2.87 0 0 1 15.215 9Q17 9 17 11.138zm-1-3-1.032.156q-.564.09-.85.32c-.136.108-.287.415-.287.8q0 .42.262.688.267.263.707.263.603 0 .994-.476c.263-.32.206-.692.206-1.18z"/></svg>