<svg xmlns="http://www.w3.org/2000/svg" width="20" height="20" fill="none"><path fill="#000" fill-rule="evenodd" d="M16.502 13A6.5 6.5 0 0 0 17 10.5a6.5 6.5 0 0 0-.498-2.5h-1.929c.277.782.427 1.624.427 2.5a7.5 7.5 0 0 1-.427 2.5zM14 10.5a6.5 6.5 0 0 0-.498-2.5H11v5h2.502A6.5 6.5 0 0 0 14 10.5M15.978 7h-1.843a7.54 7.54 0 0 0-2.8-2.947A6.5 6.5 0 0 1 15.977 7Zm-3 0A6.5 6.5 0 0 0 11 5.022V7zM11 14h1.978A6.5 6.5 0 0 1 11 15.978zm4.978 0a6.5 6.5 0 0 1-4.643 2.947 7.54 7.54 0 0 0 2.8-2.947zM10 13V8H7.498A6.5 6.5 0 0 0 7 10.5c0 .886.177 1.73.498 2.5zm-3.573 0H4.498A6.5 6.5 0 0 1 4 10.5c0-.886.177-1.73.498-2.5h1.929A7.5 7.5 0 0 0 6 10.5c0 .877.15 1.718.427 2.5m1.595-6H10V5.022A6.5 6.5 0 0 0 8.022 7m1.644-2.947A6.5 6.5 0 0 0 5.022 7h1.843a7.54 7.54 0 0 1 2.8-2.947ZM6.865 14a7.54 7.54 0 0 0 2.8 2.947A6.5 6.5 0 0 1 5.022 14zM10 15.978V14H8.022A6.5 6.5 0 0 0 10 15.978m8-5.478a7.5 7.5 0 1 1-15 0 7.5 7.5 0 0 1 15 0" clip-rule="evenodd"/></svg>