<svg xmlns="http://www.w3.org/2000/svg" width="20" height="20" fill="none"><path fill="#000" d="m5.33 6.62.001.002-.707.707-2.022-2.022.707-.707 1.313 1.313 2.741-2.741.707.707zm9.447.887a1 1 0 0 1 1.415 0l1.414 1.414a1 1 0 0 1 0 1.415L11.242 16.7l-2.065.413A1 1 0 0 1 8 15.936l.413-2.065zm-.707 2.121 1.414 1.415L16.9 9.628l-1.415-1.414zm.707 2.122-1.414-1.414-4.028 4.028-.354 1.768 1.768-.354zM3 10h6v1H3zm0 3h4v1H3zm3 3H3v1h3zM9.908 3.2l-.707.707 1.596 1.596L9.221 7.08l.707.707 1.576-1.577L13.1 7.806l.707-.707-1.596-1.596 1.577-1.576-.707-.708-1.577 1.577z"/></svg>