<svg xmlns="http://www.w3.org/2000/svg" width="20" height="20" fill="none"><path fill="#000" d="M4 17v-1h13v1z"/><path fill="#000" fill-rule="evenodd" d="M4 5V4h1v1zm2-1v1h1V4zm2 1V4h1v1zm2-1v1h1V4zm2 1V4h1v1zm2-1v1h1V4zm2 0v1h1V4zm-2 7v-1h1v1zm-2-1v1h1v-1zm-4 1v-1h1v1zm-2-1v1h1v-1zm10-4v1h1V6zm0 3V8h1v1zm0 1v1h1v-1zm0 3v-1h1v1zm0 1v1h1v-1zM4 7V6h1v1zm0 1v1h1V8zm0 3v-1h1v1zm0 1v1h1v-1zm0 3v-1h1v1zm6-9v1h1V6zm0 3V8h1v1zm0 1v1h1v-1zm0 3v-1h1v1zm0 1v1h1v-1z" clip-rule="evenodd" opacity=".4"/></svg>