<svg xmlns="http://www.w3.org/2000/svg" width="20" height="20" fill="none"><path fill="#000" fill-rule="evenodd" d="M15.355 4.916A42 42 0 0 0 17 3.205L16.919 3h-1.155l-.045.205q.26.033.26.264a.7.7 0 0 1-.029.192 1 1 0 0 1-.101.21 2.6 2.6 0 0 1-.251.317 6 6 0 0 1-.377.39L14.68 3h-1.008l-.045.205q.162.012.247.059a.4.4 0 0 1 .154.125q.07.08.142.23.073.147.19.431l.386.933A36 36 0 0 0 13 6.795l.077.205h1.155l.045-.205a.37.37 0 0 1-.203-.088.25.25 0 0 1-.057-.171q0-.084.016-.164a.8.8 0 0 1 .082-.188q.06-.108.21-.284.15-.18.308-.335.162-.159.26-.247L15.456 7h1.009l.045-.205a.9.9 0 0 1-.231-.054.6.6 0 0 1-.146-.113 1.2 1.2 0 0 1-.162-.251 8 8 0 0 1-.24-.544zM9.507 16.032q.75-.523 1.566-1.423l-.683-.723q-.904.922-1.732 1.368a3.8 3.8 0 0 1-1.842.445q-1.026 0-1.478-.523-.452-.534-.452-1.702 0-.778.132-1.446 3.464 0 5.217-.945Q12 10.137 12 8.247q0-1.157-.673-1.702Q10.666 6 9.331 6q-1.357 0-2.559.6A5.9 5.9 0 0 0 4.71 8.28a7.5 7.5 0 0 0-1.29 2.447Q3 12.084 3 13.274q0 .8.199 1.49.198.68.606 1.18.42.489 1.048.778.63.278 1.5.278a5.8 5.8 0 0 0 1.654-.222q.75-.223 1.5-.746m-2.525-5.06q-.762.1-1.776.11.33-1.178.893-2.123.574-.957 1.313-1.513.75-.567 1.522-.567.618 0 .926.389.32.378.32 1.057 0 .367-.088.711-.077.334-.298.646a2.3 2.3 0 0 1-.573.556q-.364.256-.916.444a8 8 0 0 1-1.323.29" clip-rule="evenodd"/></svg>