<svg xmlns="http://www.w3.org/2000/svg" width="20" height="20" fill="none"><path fill="#000" fill-rule="evenodd" d="M4 4v1h1V4zm2 1V4h1v1zm2-1v1h1V4zm4 1V4h1v1zm2-1v1h1V4zm2 0v1h1V4zm0 13v-1h1v1zm-2-1v1h1v-1zm-2 1v-1h1v1zM10 4v1h1V4zm0 13v-1h1v1zm-2-1v1h1v-1zm-2 1v-1h1v1zm-2-1v1h1v-1zm12-9V6h1v1zm0 1v1h1V8zm0 5v-1h1v1zm0 1v1h1v-1zM4 7V6h1v1zm0 1v1h1V8zm12 3v-1h1v1zM4 10v1h1v-1zm0 3v-1h1v1zm0 1v1h1v-1z" clip-rule="evenodd" opacity=".4"/><path fill="#000" fill-rule="evenodd" d="m16.854 4.854-12 12-.708-.707 12-12z" clip-rule="evenodd"/></svg>