<svg xmlns="http://www.w3.org/2000/svg" width="20" height="20" fill="none"><path fill="#000" fill-rule="evenodd" d="M7 5v9.293l1.146-1.147.708.708-2 2-.354.353-.354-.353-2-2 .708-.708L6 14.293V5zm3 3.927v1.1l5.01-2.006v-1.07L10 5v1.073l1.138.414V8.49zm3.842-1.452-1.86.69V6.798zm1.169 5.528V11H10v1.706q.006.966.033 1.22.045.403.236.676.195.277.516.435.325.16.667.16.434 0 .755-.246t.455-.704q.147.324.44.513.295.19.647.191.323 0 .584-.154a1.25 1.25 0 0 0 .626-.909 5.6 5.6 0 0 0 .05-.885Zm-1.993-.991h1.159v.58q0 .715-.017.865-.03.254-.178.38a.54.54 0 0 1-.376.13.53.53 0 0 1-.393-.15.67.67 0 0 1-.178-.407 9 9 0 0 1-.017-.735zm-2.174 0h1.34v.817q0 .69-.072.895a.62.62 0 0 1-.229.318.65.65 0 0 1-.382.11.62.62 0 0 1-.428-.144.62.62 0 0 1-.198-.366q-.03-.148-.03-.694v-.936Z" clip-rule="evenodd"/></svg>