<svg xmlns="http://www.w3.org/2000/svg" width="20" height="20" fill="none"><path fill="#000" d="M3 9.403q.565-.015.919-.299a1.4 1.4 0 0 0 .477-.794q.118-.503.125-1.719t.044-1.602q.067-.612.243-.984.184-.37.448-.59.265-.225.676-.342Q6.212 3 6.844 3h.411v1.144h-.228q-.764 0-1.014.276-.25.27-.25 1.217 0 1.909-.08 2.41-.133.78-.456 1.203-.316.422-1 .75.81.335 1.169 1.027.367.685.367 2.25 0 1.422.03 1.69.058.496.294.693.242.196.94.196h.228V17h-.411q-.72 0-1.044-.116a1.74 1.74 0 0 1-.779-.547q-.309-.37-.404-.947-.088-.575-.096-1.886-.007-1.311-.125-1.814a1.4 1.4 0 0 0-.477-.794q-.354-.291-.919-.306zm14 0v1.187q-.566.015-.926.306a1.4 1.4 0 0 0-.47.794q-.118.495-.125 1.712-.008 1.216-.044 1.602-.067.619-.25.984a1.7 1.7 0 0 1-.441.59q-.265.225-.676.342-.28.08-.912.08h-.411v-1.144h.228q.764 0 1.014-.276.25-.27.25-1.224 0-1.821.066-2.31.117-.808.47-1.288.353-.489 1-.758-.846-.401-1.19-1.056-.346-.663-.346-2.23 0-1.42-.037-1.696-.051-.488-.294-.678-.235-.195-.934-.196h-.227V3h.411q.72 0 1.044.117.47.16.779.539.309.378.397.954.096.575.103 1.886t.125 1.814q.117.495.47.787.36.291.926.306"/></svg>