<svg xmlns="http://www.w3.org/2000/svg" width="20" height="20" fill="none"><mask id="a" fill="#fff"><path fill-rule="evenodd" d="M7 12V7.62l3.5-4.083L14 7.62V15h-4v1h5V7.25l-3.841-4.482L10.5 2l-.659.768L6 7.25V12zm-3 3h2v-2h1v2h2v1H7v2H6v-2H4zm4-1V8.297l2.5-3 2.5 3V14z" clip-rule="evenodd"/></mask><path fill="#000" fill-rule="evenodd" d="M7 12V7.62l3.5-4.083L14 7.62V15h-4v1h5V7.25l-3.841-4.482L10.5 2l-.659.768L6 7.25V12zm-3 3h2v-2h1v2h2v1H7v2H6v-2H4zm4-1V8.297l2.5-3 2.5 3V14z" clip-rule="evenodd"/><path fill="#000" d="m7 7.62-.76-.65-.24.28v.37zM7 12v1h1v-1zm3.5-8.463.76-.651L10.5 2l-.76.886zM14 7.62h1v-.37l-.24-.28zM14 15v1h1v-1zm-4 0v-1H9v1zm0 1H9v1h1zm5 0v1h1v-1zm0-8.75h1v-.37l-.24-.28zm-3.841-4.482-.76.651zM10.5 2l.76-.65-.76-.887-.76.886zm-.659.768.76.651zM6 7.25l-.76-.65-.24.28v.37zM6 12H5v1h1zm0 3v1h1v-1zm-2 0v-1H3v1zm2-2v-1H5v1zm1 0h1v-1H7zm0 2H6v1h1zm2 0h1v-1H9zm0 1v1h1v-1zm-2 0v-1H6v1zm0 2v1h1v-1zm-1 0H5v1h1zm0-2h1v-1H6zm-2 0H3v1h1zm4-7.703-.768-.64L7 7.935v.362zM8 14H7v1h1zm2.5-8.703.768-.64-.768-.922-.768.922zm2.5 3h1v-.362l-.232-.278zM13 14v1h1v-1zM6 7.62V12h2V7.62zm3.74-4.734-3.5 4.083 1.52 1.302 3.5-4.084zm5.02 4.083-3.5-4.083-1.52 1.301 3.5 4.084zM15 15V7.62h-2V15zm-5 1h4v-2h-4zm1 0v-1H9v1zm3-1h-4v2h4zm1 0h-1v2h1zm-1 0v1h2v-1zm0-7.75V15h2V7.25zm-3.6-3.83 3.84 4.48 1.52-1.3-3.842-4.482-1.519 1.301Zm-.66-.77.66.77 1.518-1.302-.659-.769zm.86.77.66-.77-1.52-1.3-.658.768 1.519 1.301ZM6.76 7.9l3.84-4.48-1.518-1.302-3.841 4.481 1.518 1.302ZM7 12V7.25H5V12zm0-1H6v2h1zm-1 3H4v2h2zm1 1v-2H5v2zm-1-1h1v-2H6zm0-1v2h2v-2zm3 1H7v2h2zm1 2v-1H8v1zm-3 1h2v-2H7zm-1-1v2h2v-2zm1 1H6v2h1zm0 1v-2H5v2zm-3-1h2v-2H4zm-1-2v1h2v-1zm4-6.703V14h2V8.297zm2.732-3.64-2.5 3 1.536 1.28 2.5-3zm4.036 3-2.5-3-1.536 1.28 2.5 3zM14 14V8.297h-2V14zm-6 1h5v-2H8z" mask="url(#a)"/></svg>