<svg xmlns="http://www.w3.org/2000/svg" width="20" height="20" fill="none"><path fill="#000" d="M9.646 5.146a.5.5 0 0 1 .708 0l2 2a.5.5 0 0 1-.708.708L10 6.207 8.354 7.854a.5.5 0 1 1-.708-.708z"/><path fill="#000" fill-rule="evenodd" d="M7.485 13.696a5.3 5.3 0 0 1-.87.776 3 3 0 0 1-.833.407 3.3 3.3 0 0 1-.92.121q-.483 0-.833-.152a1.7 1.7 0 0 1-.582-.424 1.8 1.8 0 0 1-.337-.643 2.9 2.9 0 0 1-.11-.813q0-.65.233-1.39a4.1 4.1 0 0 1 .717-1.334 3.26 3.26 0 0 1 1.146-.916A3.2 3.2 0 0 1 6.517 9q.741 0 1.11.297.373.297.373.928 0 1.032-.98 1.548-.975.515-2.899.515a4 4 0 0 0-.073.789q0 .637.251.928.25.285.821.285.564 0 1.023-.242.46-.243.962-.747zm-3.26-1.923a9 9 0 0 0 .987-.061q.429-.06.735-.158.307-.104.509-.243c.202-.139.24-.194.319-.303a1 1 0 0 0 .165-.352q.05-.188.049-.388 0-.37-.178-.576-.171-.213-.514-.213-.429 0-.846.31a2.9 2.9 0 0 0-.73.825q-.312.515-.496 1.159" clip-rule="evenodd"/><path fill="#000" d="M14.532 11.874q1.29-1.267 2.468-2.566L16.878 9h-1.732l-.067.308q.39.05.39.395a1 1 0 0 1-.043.289 1.4 1.4 0 0 1-.152.313 4 4 0 0 1-.377.477 9 9 0 0 1-.566.584L13.523 9h-1.514l-.067.308a1 1 0 0 1 .371.087.6.6 0 0 1 .231.189q.104.12.213.345.11.22.286.646l.577 1.4A55 55 0 0 0 11 14.693l.116.307h1.732l.067-.307q-.213-.039-.304-.132a.37.37 0 0 1-.085-.258q0-.125.024-.244.03-.12.122-.283.09-.163.316-.427.225-.27.462-.502.243-.238.389-.37L14.684 15h1.514l.066-.307a1.3 1.3 0 0 1-.346-.082.9.9 0 0 1-.219-.17 1.8 1.8 0 0 1-.243-.376q-.134-.264-.359-.816z"/></svg>