<svg xmlns="http://www.w3.org/2000/svg" width="20" height="20" fill="none"><path fill="#000" fill-rule="evenodd" d="M4 5h1V4H4zm0 2h1V6H4zm1 2H4V8h1zm-1 2h1v-1H4zm1 2H4v-1h1zm-1 2h1v-1H4zm7-8h-1V6h1zm-1 2h1V8h-1zm1 4h-1v-1h1zm-1 2h1v-1h-1zm-5 2H4v-1h1zM6 5h1V4H6zm3 0H8V4h1zm1 0h1V4h-1zm3 0h-1V4h1zm1 0h1V4h-1zM7 17H6v-1h1zm1 0h1v-1H8zm3 0h-1v-1h1zm1 0h1v-1h-1zm3 0h-1v-1h1zm-9-6h1v-1H6zm3 0H8v-1h1zm1 0h1v-1h-1zm3 0h-1v-1h1zm1 0h1v-1h-1z" clip-rule="evenodd" opacity=".4"/><path fill="#000" d="M17 17h-1V4h1z"/></svg>