<svg xmlns="http://www.w3.org/2000/svg" width="20" height="20" fill="none"><path fill="#000" fill-rule="evenodd" d="M7 4c1.103 0 2 .897 2 2 0 1.09-.91 2-2 2.001-1.103 0-2-.897-2-2.001s.897-2 2-2m0-1C5.366 3 4 4.366 4 6s1.366 3 3 3 3-1.366 3-3-1.366-3-3-3m0 8c4.185 0 4.909 1.935 5 2.309v1.692H2v-1.688C2.1 12.906 2.841 11 7 11m0-1c-5.477 0-6 3.212-6 3.212v2.789h12v-2.789S12.477 10 7 10m7.5 0a2.5 2.5 0 1 0 0-5 2.5 2.5 0 0 0 0 5m-.5 3c-.117-.787-.486-1.373-.99-1.984 1.99 0 5.99 0 5.99 2.722v2.263h-5z" clip-rule="evenodd"/></svg>