<svg xmlns="http://www.w3.org/2000/svg" width="20" height="20" fill="none"><path fill="#000" fill-rule="evenodd" d="M10 12q.438 0 .85-.09a4 4 0 0 0-.85-1.556c-.39.443-.685.972-.85 1.556q.412.09.85.09m-1.794-.424c.209-.706.57-1.346 1.044-1.884a4.015 4.015 0 0 0-3.1-.602 4 4 0 0 0 2.056 2.486M10 9a4.98 4.98 0 0 0-3-1q-.514 0-.999.1L6 8a4 4 0 1 1 7.999.1A5 5 0 0 0 13 8a4.98 4.98 0 0 0-3 1m4.983-.591Q15 8.207 15 8a5 5 0 1 0-9.984.409A5.001 5.001 0 1 0 10 17a5 5 0 1 0 4.983-8.592m-1.133.681a4.02 4.02 0 0 0-3.1.602 5 5 0 0 1 1.044 1.884A4 4 0 0 0 13.85 9.09m.944.334a4 4 0 1 1-4.044 6.884 4.98 4.98 0 0 0 1.233-3.717 5.01 5.01 0 0 0 2.811-3.167M10 15.646a3.99 3.99 0 0 0 .999-2.746A5 5 0 0 1 9 12.9v.1c0 1.014.378 1.94 1 2.646m-.75.662a4.98 4.98 0 0 1-1.234-3.717 5.01 5.01 0 0 1-2.81-3.167 4 4 0 1 0 4.044 6.884" clip-rule="evenodd"/></svg>