<svg xmlns="http://www.w3.org/2000/svg" width="20" height="20" fill="none"><path fill="#000" fill-rule="evenodd" d="M9 10v5H4v-5zm0-1V4H4v5zm1-6v13H3V3z" clip-rule="evenodd" opacity=".4"/><mask id="path-2-inside-1_534_12046" fill="#fff"><path fill-rule="evenodd" d="M15 3V2h-1v1h-3v1h3v5h-3v1h3v5h-3v1h3v1h1v-1h2v-1h-2v-5h2V9h-2V4h2V3z" clip-rule="evenodd"/></mask><path fill="#000" fill-rule="evenodd" d="M15 3V2h-1v1h-3v1h3v5h-3v1h3v5h-3v1h3v1h1v-1h2v-1h-2v-5h2V9h-2V4h2V3z" clip-rule="evenodd"/><path fill="#000" d="M15 2h1V1h-1zm0 1h-1v1h1zm-1-1V1h-1v1zm0 1v1h1V3zm-3 0V2h-1v1zm0 1h-1v1h1zm3 0h1V3h-1zm0 5v1h1V9zm-3 0V8h-1v1zm0 1h-1v1h1zm3 0h1V9h-1zm0 5v1h1v-1zm-3 0v-1h-1v1zm0 1h-1v1h1zm3 0h1v-1h-1zm0 1h-1v1h1zm1 0v1h1v-1zm0-1v-1h-1v1zm2 0v1h1v-1zm0-1h1v-1h-1zm-2 0h-1v1h1zm0-5V9h-1v1zm2 0v1h1v-1zm0-1h1V8h-1zm-2 0h-1v1h1zm0-5V3h-1v1zm2 0v1h1V4zm0-1h1V2h-1zm-3-1v1h2V2zm0 1h1V1h-1zm1 0V2h-2v1zm-4 1h3V2h-3zm1 0V3h-2v1zm2-1h-3v2h3zm1 6V4h-2v5zm-4 1h3V8h-3zm1 0V9h-2v1zm2-1h-3v2h3zm1 6v-5h-2v5zm-1-1h-3v2h3zm-4 1v1h2v-1zm1 2h3v-2h-3zm4 0v-1h-2v1zm0-1h-1v2h1zm-1 0v1h2v-1zm1 1h2v-2h-2zm3-1v-1h-2v1zm-1-2h-2v2h2zm-3-4v5h2v-5zm3-1h-2v2h2zm-1 0v1h2V9zm-1 1h2V8h-2zm-1-6v5h2V4zm3-1h-2v2h2zm-1 0v1h2V3zm-1 1h2V2h-2z" mask="url(#path-2-inside-1_534_12046)"/></svg>