<svg xmlns="http://www.w3.org/2000/svg" width="20" height="20" fill="none"><path fill="#000" fill-rule="evenodd" d="M18 2H2v1h16zM2 4h16v1H2zm16 2H2v1h16zM2 8h16v1H2zm16 2H2v1h16zM2 12h16v1H2zm16 2H2v1h16zm0 2H2v1h16z" clip-rule="evenodd" opacity=".4"/><path fill="#000" fill-rule="evenodd" d="m5 5 .001.118.001.05s.041.349.12.832h3.476a6 6 0 0 0-.842-1zm7.294 0a6.4 6.4 0 0 0-.785 1h3.378c.069-.483.1-.832.1-.832q0-.054.005-.132L14.994 5zm2.15 3c.107-.302.196-.651.27-1h-3.758a8 8 0 0 0-.396 1zM5.576 8a10 10 0 0 1-.266-1h3.868c.192.389.33.742.41 1zm8.048 1H7.437l-.053.029c-.27.147-.762.417-1.089.971h3.283a.2.2 0 0 0 .014-.053L9.59 10h.81l-.002-.045.008.045h3.158c-.39-.614-.977-.876-1.234-.938.07 0 .157.006.253.013.297.02.693.049 1.041-.075m-6.23 0H6.368c.38.13.8.066 1.026 0m3.036-1c-.05-.198-.15-.398-.355-.398-.204 0-.305.2-.354.398zm-4.462 3.3q0-.156.015-.3h3.42a7 7 0 0 1-.164 1H6.002a7 7 0 0 1-.034-.7m4.027.196c-.182 0-.284-.22-.34-.496h.68c-.057.275-.159.496-.34.496m.675.504a7 7 0 0 1-.165-1h3.41q.024.188.025.398a7 7 0 0 1-.025.602zm3.092 1h-2.785c.141.372.303.71.472 1h1.993c.127-.29.236-.63.32-1m-4.83 0H6.17c.09.372.204.711.333 1H8.46c.169-.29.33-.628.472-1" clip-rule="evenodd"/></svg>